<?xml version="1.0"?>
<svg version="1.1" xmlns="http://www.w3.org/2000/svg" xmlns:xlink="http://www.w3.org/1999/xlink" width="100" height="100">
    <desc iVinci="yes" version="4.1" gridStep="20" showGrid="no" snapToGrid="no" codePlatform="0"/>
    <g id="Layer1">
        <g id="Shape1">
            <desc type="0" basicInfo-basicType="0" basicInfo-roundedRectRadius="12" basicInfo-polygonSides="6" basicInfo-starPoints="5" bounding="rect(-199.646,-200.249,399.293,400.499)" text="" font-familyName="Kaushan Script" font-pixelSize="80" font-bold="0" font-underline="0" font-alignment="1" strokeStyle="0" markerStart="0" markerEnd="0" shadowEnabled="0" shadowOffsetX="0" shadowOffsetY="2" shadowBlur="4" shadowOpacity="160" blurEnabled="0" blurRadius="4" transform="matrix(0.249739,0,0,0.249686,50.5783,50.4995)" pers-center="0,0" pers-size="0,0" pers-start="0,0" pers-end="0,0" locked="0" mesh="" flag=""/>
            <path id="shapePath1" d="M0.718811,100.499 C0.718811,50.0627 50.6666,50.0627 50.6666,50.0627 C50.6666,50.0627 -2.27489,50.4997 50.6666,50.0627 C104.489,49.6183 100.365,0.500004 100.365,0.500004 C100.365,0.500004 0.718811,0.500004 0.718811,0.500004 C0.718811,0.500004 0.718811,100.499 0.718811,100.499 Z" style="stroke:none;fill-rule:evenodd;fill:#1e87be;fill-opacity:1;"/>
        </g>
    </g>
    <g id="Layer2">
        <g id="Shape2">
            <desc type="0" basicInfo-basicType="0" basicInfo-roundedRectRadius="12" basicInfo-polygonSides="6" basicInfo-starPoints="5" bounding="rect(-199.665,-200.25,399.331,400.5)" text="" font-familyName="Kaushan Script" font-pixelSize="80" font-bold="0" font-underline="0" font-alignment="1" strokeStyle="0" markerStart="0" markerEnd="0" shadowEnabled="0" shadowOffsetX="0" shadowOffsetY="2" shadowBlur="4" shadowOpacity="160" blurEnabled="0" blurRadius="4" transform="matrix(-0.249739,1.933e-06,-1.92408e-06,-0.249686,50.6354,50.5)" pers-center="0,0" pers-size="0,0" pers-start="0,0" pers-end="0,0" locked="0" mesh="" flag=""/>
            <path id="shapePath2" d="M100.499,0.499992 C100.5,50.9367 50.677,49.6037 50.677,49.6037 C50.677,49.6037 100.618,48.777 50.677,49.6037 C-3.48407,50.5 0.854187,100.5 0.854187,100.5 C0.854187,100.5 100.5,100.499 100.5,100.499 C100.5,100.499 100.499,0.499992 100.499,0.499992 Z" style="stroke:none;fill-rule:evenodd;fill:#ffffff;fill-opacity:1;"/>
        </g>
    </g>
    <g id="Layer3">
        <g id="Shape3">
            <desc type="2" basicInfo-basicType="0" basicInfo-roundedRectRadius="12" basicInfo-polygonSides="6" basicInfo-starPoints="5" bounding="rect(-39.9124,-11.9999,79.8249,23.9998)" text="Mind" font-familyName="Kaushan Script" font-pixelSize="30" font-bold="0" font-underline="0" font-alignment="1" strokeStyle="0" markerStart="0" markerEnd="0" shadowEnabled="0" shadowOffsetX="0" shadowOffsetY="2" shadowBlur="4" shadowOpacity="160" blurEnabled="0" blurRadius="4" transform="matrix(1,0,0,1,49.279,29.1665)" pers-center="0,0" pers-size="0,0" pers-start="0,0" pers-end="0,0" locked="0" mesh="" flag=""/>
            <path id="shapePath3" d="M32.7927,41.9178 C32.7527,41.9378 32.7127,41.9478 32.6727,41.9478 C32.6328,41.9478 32.5527,41.9478 32.4327,41.9478 C32.1527,41.9478 31.8277,41.9027 31.4577,41.8128 C31.0877,41.7227 30.7277,41.6128 30.3777,41.4827 C30.0278,41.3527 29.7277,41.2077 29.4777,41.0478 C29.2277,40.8877 29.0728,40.7477 29.0127,40.6278 C28.9928,40.3477 28.9827,40.0578 28.9827,39.7578 C28.9827,39.4577 28.9827,39.1678 28.9827,38.8877 C28.9827,36.6478 29.1477,34.3078 29.4777,31.8678 C29.8077,29.4277 30.3527,26.7878 31.1127,23.9478 C31.1927,23.6677 31.2778,23.3127 31.3678,22.8827 C31.4577,22.4528 31.5527,21.9878 31.6528,21.4878 C31.1727,21.8678 30.6027,22.4727 29.9427,23.3027 C29.2827,24.1327 28.5877,25.1128 27.8577,26.2428 C27.1277,27.3727 26.3977,28.6128 25.6677,29.9627 C24.9377,31.3127 24.2727,32.6828 23.6727,34.0728 C23.0728,35.4627 22.5577,36.8377 22.1277,38.1978 C21.6978,39.5578 21.4327,40.8177 21.3327,41.9777 C20.3727,41.6978 19.7077,41.4178 19.3377,41.1377 C18.9677,40.8577 18.7827,40.5177 18.7827,40.1178 C18.7827,39.7578 18.8927,39.2477 19.1127,38.5877 C19.3327,37.9277 19.6427,37.1478 20.0427,36.2477 C20.4427,35.3478 20.9327,34.3428 21.5127,33.2327 C22.0927,32.1227 22.7327,30.9277 23.4327,29.6478 C24.2327,28.1877 25.0177,26.8177 25.7878,25.5378 C26.5577,24.2577 27.3127,23.0977 28.0527,22.0578 C28.7927,21.0177 29.5177,20.1178 30.2277,19.3577 C30.9377,18.5977 31.6427,18.0177 32.3428,17.6178 C32.6227,17.6178 32.9977,17.6877 33.4678,17.8278 C33.9377,17.9678 34.3978,18.1377 34.8477,18.3377 C35.2977,18.5378 35.6978,18.7428 36.0477,18.9528 C36.3978,19.1628 36.5928,19.3377 36.6328,19.4777 C36.3527,20.0378 36.0228,20.8778 35.6427,21.9977 C35.2627,23.1178 34.8778,24.3878 34.4877,25.8078 C34.0977,27.2278 33.7277,28.7327 33.3778,30.3228 C33.0277,31.9128 32.7527,33.4378 32.5527,34.8978 C33.0127,33.7977 33.5477,32.6527 34.1577,31.4627 C34.7677,30.2728 35.4128,29.0928 36.0928,27.9228 C36.7728,26.7528 37.4678,25.6178 38.1777,24.5177 C38.8877,23.4177 39.5827,22.4128 40.2627,21.5028 C40.9427,20.5928 41.5778,19.7978 42.1677,19.1178 C42.7578,18.4377 43.2827,17.9377 43.7427,17.6178 C44.0228,17.6178 44.3978,17.6877 44.8677,17.8278 C45.3377,17.9678 45.7977,18.1377 46.2477,18.3377 C46.6978,18.5378 47.0977,18.7428 47.4478,18.9528 C47.7977,19.1628 47.9927,19.3377 48.0327,19.4777 C47.3927,20.6178 46.8327,22.0077 46.3527,23.6478 C45.8727,25.2878 45.4678,27.0077 45.1377,28.8078 C44.8078,30.6077 44.5578,32.3927 44.3877,34.1628 C44.2178,35.9328 44.1328,37.5177 44.1328,38.9178 C44.1328,39.3778 44.1328,39.8577 44.1328,40.3577 C44.1328,40.8577 44.1527,41.3778 44.1927,41.9178 C43.9128,41.9178 43.5778,41.8828 43.1877,41.8128 C42.7977,41.7428 42.4177,41.6478 42.0477,41.5277 C41.6777,41.4077 41.3428,41.2728 41.0427,41.1227 C40.7427,40.9727 40.5327,40.8078 40.4128,40.6278 C40.3927,40.3477 40.3828,40.0578 40.3828,39.7578 C40.3828,39.4577 40.3828,39.1678 40.3828,38.8877 C40.3828,36.6478 40.5477,34.3078 40.8778,31.8678 C41.2077,29.4277 41.7528,26.7878 42.5127,23.9478 C42.5928,23.6677 42.6828,23.2878 42.7827,22.8078 C42.8828,22.3278 42.9827,21.8278 43.0827,21.3078 C42.5228,21.5877 41.8877,22.1227 41.1777,22.9128 C40.4678,23.7028 39.7477,24.6628 39.0177,25.7927 C38.2878,26.9228 37.5677,28.1777 36.8577,29.5578 C36.1478,30.9377 35.5078,32.3428 34.9377,33.7728 C34.3677,35.2028 33.8877,36.6227 33.4977,38.0327 C33.1077,39.4427 32.8727,40.7378 32.7927,41.9178 M47.9065,37.6878 C47.9065,37.5078 47.9215,37.2827 47.9515,37.0127 C47.9815,36.7428 48.0365,36.3828 48.1165,35.9328 C48.1965,35.4827 48.3015,34.9378 48.4315,34.2977 C48.5615,33.6577 48.7265,32.8877 48.9265,31.9878 C48.9665,31.7878 49.0565,31.4678 49.1965,31.0278 C49.3365,30.5877 49.5215,30.1227 49.7515,29.6327 C49.9815,29.1427 50.2615,28.6677 50.5915,28.2078 C50.9215,27.7477 51.3165,27.4077 51.7765,27.1877 C52.1165,27.2677 52.5665,27.4727 53.1265,27.8027 C53.6865,28.1327 54.1665,28.5877 54.5665,29.1677 C54.1065,29.6877 53.7215,30.2078 53.4115,30.7278 C53.1015,31.2477 52.8215,31.7878 52.5715,32.3478 C52.3215,32.9077 52.0915,33.4878 51.8815,34.0877 C51.6715,34.6878 51.4365,35.3177 51.1765,35.9777 C50.9565,36.5378 50.7565,37.1128 50.5765,37.7028 C50.3965,38.2928 50.2965,38.8078 50.2765,39.2477 C50.2765,39.6077 50.2715,39.8628 50.2615,40.0127 C50.2515,40.1628 50.1965,40.2378 50.0965,40.2378 C50.0165,40.2378 49.8565,40.1878 49.6165,40.0877 C49.3765,39.9878 49.1315,39.8327 48.8815,39.6227 C48.6315,39.4128 48.4065,39.1478 48.2065,38.8278 C48.0065,38.5078 47.9065,38.1278 47.9065,37.6878 M53.6365,24.6677 C53.6365,24.5478 53.6665,24.3678 53.7265,24.1278 C53.6265,24.0278 53.5415,23.8778 53.4715,23.6777 C53.4015,23.4778 53.3665,23.2978 53.3665,23.1378 C53.3665,22.9578 53.3915,22.7127 53.4415,22.4028 C53.4915,22.0928 53.5565,21.7577 53.6365,21.3978 C53.7165,21.0378 53.8165,20.6628 53.9365,20.2728 C54.0565,19.8828 54.1765,19.5278 54.2965,19.2078 C54.5365,19.2078 54.8315,19.2728 55.1815,19.4028 C55.5315,19.5327 55.8865,19.7028 56.2465,19.9128 C56.6065,20.1227 56.9365,20.3527 57.2365,20.6027 C57.5365,20.8527 57.7665,21.0877 57.9265,21.3078 C57.7065,21.5278 57.4165,21.8328 57.0565,22.2227 C56.6965,22.6128 56.3465,23.0228 56.0065,23.4528 C55.6665,23.8827 55.3565,24.2878 55.0765,24.6677 C54.7965,25.0478 54.6165,25.3177 54.5365,25.4778 C54.2965,25.4377 54.0865,25.3328 53.9065,25.1628 C53.7265,24.9928 53.6365,24.8278 53.6365,24.6677 M59.8146,25.1478 C60.3346,25.3078 60.8246,25.6628 61.2846,26.2127 C61.7446,26.7628 62.0846,27.3678 62.3046,28.0278 C62.0846,28.5678 61.7446,29.2178 61.2846,29.9778 C60.8246,30.7378 60.3646,31.5128 59.9046,32.3027 C59.4446,33.0928 59.0296,33.8428 58.6596,34.5527 C58.2896,35.2627 58.0746,35.8478 58.0146,36.3078 C58.3346,35.9678 58.6896,35.5728 59.0796,35.1227 C59.4696,34.6727 59.8496,34.2228 60.2196,33.7728 C60.5896,33.3228 60.9346,32.9128 61.2546,32.5428 C61.5746,32.1727 61.8246,31.8978 62.0046,31.7178 C62.3846,31.3177 62.8346,30.8528 63.3546,30.3228 C63.8746,29.7927 64.4196,29.2927 64.9896,28.8228 C65.5596,28.3528 66.1346,27.9527 66.7146,27.6227 C67.2946,27.2927 67.8246,27.1278 68.3046,27.1278 C68.8246,27.1278 69.2596,27.3027 69.6096,27.6528 C69.9596,28.0028 70.2346,28.3678 70.4346,28.7477 C70.4346,28.7878 70.3596,28.8428 70.2096,28.9128 C70.0596,28.9827 69.8446,29.1777 69.5646,29.4977 C69.2846,29.8577 68.9696,30.3528 68.6196,30.9827 C68.2696,31.6128 67.9296,32.2928 67.5996,33.0228 C67.2696,33.7528 66.9946,34.4977 66.7746,35.2578 C66.5546,36.0177 66.4446,36.7077 66.4446,37.3278 C66.4446,37.8278 66.5096,38.1478 66.6396,38.2878 C66.7696,38.4277 66.9546,38.4977 67.1946,38.4977 C67.4146,38.4977 67.6446,38.4478 67.8846,38.3477 C68.1246,38.2477 68.3146,38.1978 68.4546,38.1978 C68.5346,38.2378 68.5996,38.3228 68.6496,38.4528 C68.6996,38.5827 68.7246,38.6978 68.7246,38.7978 C68.5646,38.9378 68.3746,39.0778 68.1546,39.2178 C67.9346,39.3577 67.7046,39.4878 67.4646,39.6077 C67.2246,39.7277 66.9896,39.8278 66.7596,39.9077 C66.5296,39.9878 66.3246,40.0277 66.1446,40.0277 C65.5646,40.0277 65.0896,39.9427 64.7196,39.7728 C64.3496,39.6027 64.0596,39.3778 63.8496,39.0977 C63.6396,38.8177 63.4946,38.4827 63.4146,38.0928 C63.3346,37.7028 63.2946,37.2878 63.2946,36.8478 C63.2946,36.6077 63.3146,36.3377 63.3546,36.0378 C63.3946,35.7378 63.4746,35.3828 63.5946,34.9728 C63.7146,34.5628 63.8846,34.0728 64.1046,33.5028 C64.3246,32.9328 64.6046,32.2477 64.9446,31.4478 C64.9046,31.4478 64.6346,31.5877 64.1346,31.8678 C63.6346,32.1478 63.0946,32.5778 62.5146,33.1577 C61.5746,34.0578 60.7296,34.9478 59.9796,35.8278 C59.2296,36.7077 58.4646,37.6878 57.6846,38.7677 C57.2446,39.3877 56.8596,39.9128 56.5296,40.3428 C56.1996,40.7728 55.9146,41.0578 55.6746,41.1978 C55.2546,40.9577 54.9446,40.6227 54.7446,40.1927 C54.5446,39.7627 54.3946,39.3177 54.2946,38.8577 C54.2946,38.4777 54.3496,37.9977 54.4596,37.4178 C54.5696,36.8377 54.7196,36.1927 54.9096,35.4827 C55.0996,34.7728 55.3346,34.0277 55.6146,33.2477 C55.8946,32.4678 56.2046,31.6877 56.5446,30.9077 C57.3046,29.1478 57.9996,27.7677 58.6296,26.7677 C59.2596,25.7677 59.6546,25.2278 59.8146,25.1478 M77.6821,25.6877 C78.0821,25.6877 78.5421,25.8078 79.0621,26.0478 C79.5821,26.2878 80.0421,26.5977 80.4421,26.9778 C80.3421,26.1777 80.2171,25.4228 80.0671,24.7127 C79.9171,24.0028 79.6971,23.2677 79.4071,22.5077 C79.1171,21.7477 78.7321,20.9178 78.2521,20.0177 C77.7721,19.1178 77.1721,18.0877 76.4521,16.9277 C76.5121,16.7477 76.6471,16.5378 76.8571,16.2978 C77.0671,16.0578 77.3071,15.8328 77.5771,15.6228 C77.8471,15.4128 78.1271,15.2277 78.4171,15.0677 C78.7071,14.9078 78.9821,14.8077 79.2421,14.7677 C79.8021,15.3877 80.3321,16.1628 80.8321,17.0928 C81.3321,18.0228 81.7721,19.0228 82.1521,20.0928 C82.5321,21.1628 82.8271,22.2677 83.0371,23.4077 C83.2471,24.5478 83.3521,25.6378 83.3521,26.6777 C83.3521,27.7178 83.2371,28.7878 83.0071,29.8878 C82.7771,30.9878 82.4571,32.0628 82.0471,33.1128 C81.6371,34.1628 81.1621,35.1577 80.6221,36.0978 C80.0821,37.0378 79.4971,37.8778 78.8671,38.6178 C78.2371,39.3577 77.5821,39.9627 76.9021,40.4328 C76.2221,40.9027 75.5421,41.1978 74.8621,41.3177 C73.4821,41.1577 72.4271,40.7127 71.6971,39.9827 C70.9671,39.2528 70.6021,38.2477 70.6021,36.9678 C70.6021,36.2878 70.7071,35.5477 70.9171,34.7477 C71.1271,33.9478 71.4071,33.1527 71.7571,32.3628 C72.1071,31.5728 72.5171,30.8027 72.9871,30.0527 C73.4571,29.3027 73.9571,28.6278 74.4871,28.0278 C75.0171,27.4277 75.5521,26.9177 76.0921,26.4977 C76.6321,26.0778 77.1621,25.8078 77.6821,25.6877 M74.6221,40.1178 C75.3221,39.8778 76.0221,39.3477 76.7221,38.5277 C77.4221,37.7077 78.0521,36.7428 78.6121,35.6328 C79.1721,34.5228 79.6271,33.3327 79.9771,32.0628 C80.3271,30.7927 80.5021,29.5678 80.5021,28.3878 C80.5021,28.0478 80.5021,27.8377 80.5021,27.7577 C80.5021,27.6777 80.4921,27.5977 80.4721,27.5177 C79.9921,27.7178 79.4821,28.0578 78.9421,28.5378 C78.4021,29.0177 77.8621,29.5728 77.3221,30.2027 C76.7821,30.8328 76.2721,31.5177 75.7921,32.2578 C75.3121,32.9977 74.8821,33.7378 74.5021,34.4777 C74.1221,35.2178 73.8221,35.9277 73.6021,36.6077 C73.3821,37.2878 73.2721,37.8877 73.2721,38.4077 C73.2721,39.4077 73.7221,39.9777 74.6221,40.1178 " style="stroke:none;fill-rule:nonzero;fill:#ffffff;fill-opacity:1;"/>
        </g>
        <g id="Shape4">
            <desc type="2" basicInfo-basicType="0" basicInfo-roundedRectRadius="12" basicInfo-polygonSides="6" basicInfo-starPoints="5" bounding="rect(-31.93,-13.4999,63.8599,26.9998)" text="Flow" font-familyName="Kaushan Script" font-pixelSize="30" font-bold="0" font-underline="0" font-alignment="1" strokeStyle="0" markerStart="0" markerEnd="0" shadowEnabled="0" shadowOffsetX="0" shadowOffsetY="2" shadowBlur="4" shadowOpacity="160" blurEnabled="0" blurRadius="4" transform="matrix(1,0,0,1,47.9107,68.7265)" pers-center="0,0" pers-size="0,0" pers-start="0,0" pers-end="0,0" locked="0" mesh="" flag=""/>
            <path id="shapePath4" d="M35.7138,66.2477 C36.3538,66.2477 36.8588,66.4277 37.2288,66.7878 C37.5988,67.1478 37.7838,67.6478 37.7838,68.2878 C37.7838,68.4478 37.7738,68.6128 37.7538,68.7828 C37.7338,68.9528 37.6938,69.0977 37.6338,69.2178 C37.3738,69.1777 37.0838,69.1428 36.7638,69.1128 C36.4438,69.0827 36.0638,69.0677 35.6238,69.0677 C34.7238,69.0677 33.8238,69.1478 32.9238,69.3078 C32.0238,69.4678 31.1638,69.5977 30.3438,69.6978 C29.4438,71.8177 28.7038,73.8078 28.1238,75.6678 C27.5438,77.5278 27.0938,79.3678 26.7738,81.1878 C26.0938,81.0278 25.4938,80.7377 24.9738,80.3177 C24.4538,79.8978 23.9638,79.3078 23.5038,78.5478 C23.6438,78.2278 23.8138,77.8428 24.0138,77.3928 C24.2138,76.9427 24.4538,76.3727 24.7338,75.6828 C25.0138,74.9928 25.3488,74.1527 25.7388,73.1628 C26.1288,72.1728 26.5938,70.9878 27.1338,69.6077 C26.2938,69.3278 25.7438,68.8378 25.4838,68.1377 C25.5838,68.0378 25.8638,67.9228 26.3238,67.7928 C26.7838,67.6628 27.3438,67.5178 28.0038,67.3577 C28.3038,66.5778 28.5638,65.8828 28.7838,65.2728 C29.0038,64.6628 29.2038,64.0827 29.3838,63.5328 C29.5638,62.9827 29.7288,62.4428 29.8788,61.9128 C30.0288,61.3828 30.1638,60.8178 30.2838,60.2178 L30.1338,60.2178 C29.3738,60.2178 28.7588,60.0378 28.2888,59.6777 C27.8188,59.3178 27.5838,58.8478 27.5838,58.2678 C27.5838,58.1077 27.6088,57.9178 27.6588,57.6978 C27.7088,57.4778 27.7738,57.2878 27.8538,57.1278 C28.2338,57.1878 28.6088,57.2278 28.9788,57.2477 C29.3488,57.2678 29.8338,57.2778 30.4338,57.2778 C31.6938,57.2778 32.8738,57.2428 33.9738,57.1728 C35.0738,57.1028 36.0688,57.0278 36.9588,56.9478 C37.8488,56.8678 38.6138,56.7928 39.2538,56.7228 C39.8938,56.6528 40.3838,56.6178 40.7238,56.6178 C41.1838,56.6178 41.5938,56.8577 41.9538,57.3378 C42.3138,57.8178 42.5938,58.4977 42.7938,59.3778 C42.1538,59.3178 41.6388,59.2778 41.2488,59.2578 C40.8588,59.2378 40.5138,59.2278 40.2138,59.2278 C39.1938,59.2278 38.2588,59.2728 37.4088,59.3628 C36.5588,59.4528 35.7538,59.5578 34.9938,59.6777 C34.8738,59.8577 34.7388,60.0878 34.5888,60.3678 C34.4388,60.6478 34.2438,61.0428 34.0038,61.5527 C33.7638,62.0628 33.4588,62.7278 33.0888,63.5478 C32.7188,64.3678 32.2538,65.4078 31.6938,66.6678 C32.4738,66.5478 33.2188,66.4478 33.9288,66.3678 C34.6388,66.2878 35.2338,66.2477 35.7138,66.2477 M39.3688,76.8378 C39.3688,75.9577 39.5788,74.7227 39.9988,73.1328 C40.4188,71.5428 41.0088,69.6878 41.7688,67.5677 C43.0088,64.1878 44.1738,61.3727 45.2638,59.1227 C46.3538,56.8727 47.4188,55.1178 48.4588,53.8577 C48.6988,53.8978 48.9938,53.9977 49.3438,54.1578 C49.6938,54.3178 50.0388,54.4928 50.3788,54.6828 C50.7188,54.8727 51.0238,55.0678 51.2938,55.2678 C51.5638,55.4678 51.7388,55.6278 51.8188,55.7477 C50.2588,57.5878 48.8888,59.5678 47.7088,61.6878 C46.5288,63.8078 45.4488,66.2378 44.4688,68.9778 C43.6288,71.3378 42.9888,73.4628 42.5488,75.3528 C42.1088,77.2428 41.8888,78.8177 41.8888,80.0778 C41.8888,80.4178 41.8888,80.6278 41.8888,80.7077 C41.8888,80.7878 41.8988,80.8678 41.9188,80.9478 C41.6388,80.9078 41.3988,80.8378 41.1988,80.7377 C40.9988,80.6377 40.8688,80.5178 40.8088,80.3778 C40.7688,80.2778 40.6588,80.1328 40.4788,79.9427 C40.2988,79.7528 40.1388,79.6077 39.9988,79.5078 C39.8188,79.3877 39.6688,79.0728 39.5488,78.5628 C39.4288,78.0527 39.3688,77.4778 39.3688,76.8378 M49.892,79.8078 C48.752,79.6878 47.842,79.1878 47.162,78.3078 C46.482,77.4277 46.142,76.3078 46.142,74.9478 C46.142,74.1478 46.262,73.3177 46.502,72.4577 C46.742,71.5977 47.082,70.7627 47.522,69.9528 C47.962,69.1428 48.482,68.3778 49.082,67.6578 C49.682,66.9378 50.332,66.3177 51.032,65.7978 C52.132,64.9778 53.162,64.5677 54.122,64.5677 C54.762,64.9078 55.392,65.6178 56.012,66.6978 C56.112,66.6978 56.202,66.6927 56.282,66.6828 C56.362,66.6728 56.452,66.6678 56.552,66.6678 C57.612,66.6678 58.142,67.6077 58.142,69.4878 C58.142,70.7477 57.937,71.9427 57.527,73.0728 C57.117,74.2028 56.547,75.2278 55.817,76.1478 C55.087,77.0677 54.217,77.8428 53.207,78.4727 C52.197,79.1028 51.092,79.5478 49.892,79.8078 M51.422,70.3577 C51.082,70.8177 50.762,71.3177 50.462,71.8577 C50.162,72.3978 49.902,72.9427 49.682,73.4928 C49.462,74.0428 49.292,74.5728 49.172,75.0827 C49.052,75.5928 48.992,76.0478 48.992,76.4478 C48.992,76.9277 49.072,77.3877 49.232,77.8278 C49.392,78.2678 49.572,78.5178 49.772,78.5778 C50.672,78.3778 51.497,78.0028 52.247,77.4528 C52.997,76.9028 53.6469,76.2178 54.197,75.3978 C54.747,74.5778 55.177,73.6478 55.487,72.6077 C55.797,71.5677 55.952,70.4577 55.952,69.2777 C55.952,68.7578 55.922,68.3477 55.862,68.0478 C55.802,67.7477 55.702,67.4878 55.562,67.2678 C54.682,67.5277 53.8969,67.9478 53.207,68.5277 C52.517,69.1077 51.922,69.7178 51.422,70.3577 M59.8407,77.5278 C59.8407,77.1278 59.8857,76.5677 59.9757,75.8477 C60.0657,75.1278 60.1857,74.3477 60.3357,73.5078 C60.4857,72.6678 60.6557,71.8078 60.8457,70.9277 C61.0357,70.0478 61.2307,69.2578 61.4307,68.5578 C61.6907,67.6178 62.0957,66.8928 62.6457,66.3828 C63.1957,65.8727 63.8807,65.6178 64.7007,65.6178 C65.1407,65.6178 65.5757,65.6878 66.0057,65.8278 C66.4357,65.9678 66.6907,66.1478 66.7707,66.3678 C66.1907,66.8477 65.7257,67.4427 65.3757,68.1527 C65.0257,68.8628 64.7457,69.6227 64.5357,70.4328 C64.3257,71.2428 64.1657,72.0728 64.0557,72.9228 C63.9457,73.7728 63.8307,74.5677 63.7107,75.3078 C64.3707,74.4277 64.9957,73.6328 65.5857,72.9228 C66.1757,72.2128 66.7007,71.6478 67.1607,71.2278 C67.7807,70.6478 68.2007,70.1628 68.4207,69.7728 C68.6407,69.3828 68.8307,68.9577 68.9907,68.4977 C69.1107,68.1377 69.2557,67.7178 69.4257,67.2378 C69.5957,66.7578 69.8807,66.3177 70.2807,65.9178 C70.3607,65.8978 70.5307,65.8877 70.7907,65.8877 C70.9907,65.8877 71.2057,65.8978 71.4357,65.9178 C71.6657,65.9378 71.8807,65.9778 72.0807,66.0378 C72.2807,66.0977 72.4507,66.1678 72.5907,66.2477 C72.7307,66.3278 72.8107,66.4277 72.8307,66.5478 C72.5107,66.9678 72.2107,67.6227 71.9307,68.5127 C71.6507,69.4027 71.4007,70.3778 71.1807,71.4378 C70.9607,72.4977 70.7607,73.5527 70.5807,74.6028 C70.4007,75.6527 70.2407,76.5378 70.1007,77.2578 C70.1807,77.2178 70.3607,77.0578 70.6407,76.7778 C70.9207,76.4977 71.2357,76.1478 71.5857,75.7278 C71.9357,75.3078 72.3057,74.8477 72.6957,74.3477 C73.0857,73.8477 73.4307,73.3577 73.7307,72.8778 C74.1107,72.2978 74.4257,71.7528 74.6757,71.2428 C74.9257,70.7327 75.1457,70.1878 75.3357,69.6077 C75.5257,69.0277 75.7007,68.3828 75.8607,67.6728 C76.0207,66.9628 76.1907,66.1178 76.3707,65.1377 C76.4907,64.9778 76.7557,64.8428 77.1657,64.7327 C77.5757,64.6227 77.9507,64.5677 78.2907,64.5677 C78.5907,64.5677 78.8107,64.6178 78.9507,64.7178 C78.8507,65.8378 78.6657,66.8378 78.3957,67.7178 C78.1257,68.5977 77.7607,69.4528 77.3007,70.2828 C76.8407,71.1128 76.2707,71.9427 75.5907,72.7728 C74.9107,73.6028 74.1107,74.5078 73.1907,75.4878 C72.8107,75.8877 72.3957,76.3278 71.9457,76.8078 C71.4957,77.2878 71.0557,77.7327 70.6257,78.1428 C70.1957,78.5527 69.7957,78.8978 69.4257,79.1777 C69.0557,79.4577 68.7707,79.5977 68.5707,79.5977 C68.1107,79.5977 67.7307,79.4178 67.4307,79.0578 C67.1307,78.6978 66.9807,78.2377 66.9807,77.6777 C66.9807,77.0977 67.0057,76.5928 67.0557,76.1628 C67.1057,75.7327 67.1907,75.2777 67.3107,74.7978 C67.4307,74.3577 67.5257,73.9878 67.5957,73.6878 C67.6657,73.3877 67.7257,73.1278 67.7757,72.9078 C67.8257,72.6878 67.8607,72.4977 67.8807,72.3378 C67.9007,72.1777 67.9207,72.0178 67.9407,71.8577 C67.7807,71.9378 67.5707,72.1028 67.3107,72.3528 C67.0507,72.6028 66.7807,72.8928 66.5007,73.2227 C66.2207,73.5527 65.9407,73.8877 65.6607,74.2278 C65.3807,74.5677 65.1507,74.8577 64.9707,75.0977 C64.5907,75.6178 64.2607,76.0778 63.9807,76.4778 C63.7007,76.8778 63.4357,77.2578 63.1857,77.6178 C62.9357,77.9778 62.6907,78.3428 62.4507,78.7128 C62.2107,79.0827 61.9307,79.4778 61.6107,79.8978 C60.9707,79.6978 60.5157,79.3978 60.2457,78.9977 C59.9757,78.5977 59.8407,78.1077 59.8407,77.5278 " style="stroke:none;fill-rule:nonzero;fill:#1e87be;fill-opacity:1;"/>
        </g>
    </g>
</svg>
