<?xml version="1.0"?>
<svg version="1.1" xmlns="http://www.w3.org/2000/svg" xmlns:xlink="http://www.w3.org/1999/xlink" width="100" height="100">
    <desc iVinci="yes" version="4.1" gridStep="20" showGrid="yes" snapToGrid="no" codePlatform="0"/>
    <g id="Layer1" visibility="hidden">
        <g id="Shape1">
            <desc type="0" basicInfo-basicType="0" basicInfo-roundedRectRadius="12" basicInfo-polygonSides="6" basicInfo-starPoints="5" bounding="rect(-157.006,-125.775,314.013,251.55)" text="" font-familyName="Kaushan Script" font-pixelSize="80" font-bold="0" font-underline="0" font-alignment="1" strokeStyle="0" markerStart="0" markerEnd="0" shadowEnabled="0" shadowOffsetX="0" shadowOffsetY="2" shadowBlur="4" shadowOpacity="160" blurEnabled="0" blurRadius="4" transform="matrix(0.478483,0.478485,-0.597446,0.597444,150.268,149.982)" pers-center="0,0" pers-size="0,0" pers-start="0,0" pers-end="0,0" locked="0" mesh="" flag=""/>
            <path id="shapePath1" d="M150.574,-3.05176e-05 L300,150.462 L150.5,300 L0,150 L150.574,-3.05176e-05 Z" style="stroke:none;fill-rule:evenodd;fill:#aed8c1;fill-opacity:1;"/>
        </g>
    </g>
    <g id="Layer2">
        <g id="Shape2">
            <desc type="0" basicInfo-basicType="2" basicInfo-roundedRectRadius="20" basicInfo-polygonSides="6" basicInfo-starPoints="5" bounding="rect(-106.598,-105.532,213.197,211.065)" text="" font-familyName="Kaushan Script" font-pixelSize="80" font-bold="0" font-underline="0" font-alignment="1" strokeStyle="0" markerStart="0" markerEnd="0" shadowEnabled="0" shadowOffsetX="0" shadowOffsetY="2" shadowBlur="4" shadowOpacity="160" blurEnabled="0" blurRadius="4" transform="matrix(0.243855,0.244741,-0.243833,0.244763,50.0909,50.2229)" pers-center="0,0" pers-size="0,0" pers-start="0,0" pers-end="0,0" locked="0" mesh="" flag=""/>
            <path id="shapePath2" d="M44.952,3.19905 C47.6452,0.495472 52.0121,0.495258 54.7057,3.1986 L96.9407,45.5868 C99.6343,48.2901 99.6345,52.6732 96.9411,55.3767 L55.23,97.2471 C52.5368,99.9507 48.1699,99.9509 45.4763,97.2475 L3.24131,54.8593 C0.547764,52.156 0.54755,47.773 3.24086,45.0694 L44.952,3.19905 Z" style="stroke:none;fill-rule:evenodd;fill:#aed8c1;fill-opacity:1;"/>
        </g>
    </g>
    <g id="Layer3">
        <g id="Shape3">
            <desc type="0" basicInfo-basicType="0" basicInfo-roundedRectRadius="12" basicInfo-polygonSides="6" basicInfo-starPoints="5" bounding="rect(-53.5133,-74.7662,107.027,149.533)" text="" font-familyName="Kaushan Script" font-pixelSize="80" font-bold="0" font-underline="0" font-alignment="1" strokeStyle="0" markerStart="0" markerEnd="0" shadowEnabled="0" shadowOffsetX="0" shadowOffsetY="2" shadowBlur="4" shadowOpacity="160" blurEnabled="0" blurRadius="4" transform="matrix(0.814954,0,0,0.329911,48.9566,67.8838)" pers-center="0,0" pers-size="0,0" pers-start="0,0" pers-end="0,0" locked="0" mesh="" flag=""/>
            <path id="shapePath3" d="M67.5491,43.2176 C92.1064,43.2176 92.5675,49.8966 92.5675,51.0747 C92.5675,52.2898 90.7931,54.0139 90.7931,54.0139 C90.7931,54.0139 53.7665,90.9907 53.7665,90.9907 C50.991,93.1142 50.1679,93.0251 47.4609,90.9907 C47.4609,90.9907 9.87162,54.0139 9.87162,54.0139 C9.87162,54.0139 9.87162,54.0139 6.35294,50.6558 C4.35116,48.7454 5.95147,43.9308 5.95147,45.6952 C5.95147,47.3131 5.88495,55.4098 33.816,55.4098 C67.5491,55.4098 33.8078,43.2176 67.5491,43.2176 Z" style="stroke:none;fill-rule:evenodd;fill:#ffffff;fill-opacity:1;"/>
        </g>
    </g>
    <g id="Layer4" visibility="hidden">
        <g id="Shape4">
            <desc type="0" basicInfo-basicType="0" basicInfo-roundedRectRadius="12" basicInfo-polygonSides="6" basicInfo-starPoints="5" bounding="rect(-60.5114,-78.5698,121.022,157.139)" text="" font-familyName="Kaushan Script" font-pixelSize="80" font-bold="0" font-underline="0" font-alignment="1" strokeStyle="0" markerStart="0" markerEnd="0" shadowEnabled="0" shadowOffsetX="0" shadowOffsetY="2" shadowBlur="4" shadowOpacity="160" blurEnabled="0" blurRadius="4" transform="matrix(2.4581,0,0,1.01348,150.297,216.201)" pers-center="0,0" pers-size="0,0" pers-start="0,0" pers-end="0,0" locked="0" mesh="" flag=""/>
            <path id="shapePath4" d="M202.426,136.572 C281.457,136.572 299.039,147.945 299.039,151.564 C299.039,155.297 294.989,157.751 294.989,157.751 C294.989,157.751 204.016,249.161 163.88,289.579 C155.508,298.01 147.493,297.815 139.414,289.579 C98.2587,247.628 19.5746,171.945 19.5746,171.945 C19.5746,171.945 -1.03822,150.461 1.82692,150.461 C37.5253,150.461 33.4655,169.738 100.679,169.738 C181.872,169.738 115.699,136.572 202.426,136.572 Z" style="stroke:none;fill-rule:evenodd;fill:#ffffff;fill-opacity:1;"/>
        </g>
    </g>
    <g id="Layer5">
        <g id="Shape5">
            <desc type="2" basicInfo-basicType="0" basicInfo-roundedRectRadius="12" basicInfo-polygonSides="6" basicInfo-starPoints="5" bounding="rect(-41.3817,-12.4609,82.7634,24.9213)" text="Mind" font-familyName="Kaushan Script" font-pixelSize="20" font-bold="0" font-underline="0" font-alignment="1" strokeStyle="0" markerStart="0" markerEnd="0" shadowEnabled="0" shadowOffsetX="0" shadowOffsetY="2" shadowBlur="4" shadowOpacity="160" blurEnabled="0" blurRadius="4" transform="matrix(1,0,0,1,45.0594,31.0975)" pers-center="0,0" pers-size="0,0" pers-start="0,0" pers-end="0,0" locked="0" mesh="" flag=""/>
            <path id="shapePath5" d="M34.0581,39.7962 C34.0315,39.8096 34.0048,39.8162 33.9781,39.8162 C33.9515,39.8162 33.8981,39.8162 33.8181,39.8162 C33.6315,39.8162 33.4148,39.7863 33.1681,39.7262 C32.9215,39.6663 32.6815,39.5929 32.4482,39.5062 C32.2148,39.4196 32.0148,39.3229 31.8481,39.2162 C31.6815,39.1096 31.5781,39.0163 31.5381,38.9362 C31.5248,38.7496 31.5181,38.5563 31.5181,38.3563 C31.5181,38.1562 31.5181,37.9629 31.5181,37.7762 C31.5181,36.2829 31.6281,34.7229 31.8481,33.0962 C32.0681,31.4696 32.4315,29.7096 32.9381,27.8162 C32.9915,27.6296 33.0481,27.3929 33.1081,27.1063 C33.1681,26.8196 33.2315,26.5096 33.2981,26.1763 C32.9781,26.4296 32.5981,26.8329 32.1581,27.3862 C31.7181,27.9396 31.2548,28.5929 30.7681,29.3463 C30.2815,30.0996 29.7948,30.9263 29.3081,31.8263 C28.8215,32.7262 28.3781,33.6396 27.9781,34.5662 C27.5781,35.4929 27.2348,36.4096 26.9481,37.3162 C26.6615,38.2229 26.4848,39.0629 26.4181,39.8363 C25.7781,39.6496 25.3348,39.4629 25.0881,39.2762 C24.8415,39.0896 24.7181,38.8629 24.7181,38.5962 C24.7181,38.3563 24.7915,38.0163 24.9381,37.5762 C25.0848,37.1362 25.2915,36.6162 25.5581,36.0163 C25.8248,35.4162 26.1515,34.7463 26.5381,34.0062 C26.9248,33.2663 27.3515,32.4696 27.8181,31.6162 C28.3515,30.6429 28.8748,29.7296 29.3881,28.8762 C29.9015,28.0229 30.4048,27.2496 30.8981,26.5562 C31.3915,25.8629 31.8748,25.2629 32.3481,24.7563 C32.8215,24.2496 33.2915,23.8629 33.7581,23.5963 C33.9448,23.5963 34.1948,23.6429 34.5081,23.7362 C34.8215,23.8296 35.1282,23.9429 35.4281,24.0763 C35.7281,24.2096 35.9948,24.3463 36.2281,24.4862 C36.4615,24.6262 36.5915,24.7429 36.6181,24.8363 C36.4315,25.2096 36.2115,25.7696 35.9581,26.5163 C35.7048,27.2629 35.4482,28.1096 35.1881,29.0562 C34.9281,30.0029 34.6815,31.0063 34.4482,32.0662 C34.2148,33.1263 34.0315,34.1429 33.8981,35.1162 C34.2048,34.3829 34.5615,33.6196 34.9681,32.8262 C35.3748,32.0329 35.8048,31.2463 36.2581,30.4662 C36.7115,29.6863 37.1748,28.9296 37.6481,28.1963 C38.1215,27.4629 38.5848,26.7929 39.0381,26.1862 C39.4915,25.5796 39.9148,25.0496 40.3081,24.5963 C40.7015,24.1429 41.0515,23.8096 41.3581,23.5963 C41.5448,23.5963 41.7948,23.6429 42.1081,23.7362 C42.4215,23.8296 42.7281,23.9429 43.0281,24.0763 C43.3281,24.2096 43.5948,24.3463 43.8281,24.4862 C44.0615,24.6262 44.1915,24.7429 44.2181,24.8363 C43.7915,25.5963 43.4181,26.5229 43.0981,27.6162 C42.7781,28.7096 42.5081,29.8563 42.2881,31.0562 C42.0681,32.2562 41.9015,33.4463 41.7881,34.6263 C41.6748,35.8063 41.6181,36.8629 41.6181,37.7962 C41.6181,38.1029 41.6181,38.4229 41.6181,38.7562 C41.6181,39.0896 41.6315,39.4362 41.6581,39.7962 C41.4715,39.7962 41.2481,39.7729 40.9881,39.7262 C40.7281,39.6796 40.4748,39.6162 40.2281,39.5363 C39.9815,39.4562 39.7581,39.3662 39.5581,39.2663 C39.3581,39.1663 39.2181,39.0563 39.1381,38.9362 C39.1248,38.7496 39.1181,38.5563 39.1181,38.3563 C39.1181,38.1562 39.1181,37.9629 39.1181,37.7762 C39.1181,36.2829 39.2281,34.7229 39.4482,33.0962 C39.6681,31.4696 40.0315,29.7096 40.5381,27.8162 C40.5915,27.6296 40.6515,27.3762 40.7181,27.0562 C40.7848,26.7362 40.8515,26.4029 40.9181,26.0562 C40.5448,26.2429 40.1215,26.5996 39.6481,27.1262 C39.1748,27.6529 38.6948,28.2929 38.2081,29.0462 C37.7215,29.7996 37.2415,30.6362 36.7682,31.5562 C36.2948,32.4762 35.8681,33.4129 35.4881,34.3662 C35.1081,35.3196 34.7881,36.2663 34.5281,37.2062 C34.2682,38.1462 34.1115,39.0096 34.0581,39.7962 M44.1288,36.9762 C44.1288,36.8563 44.1388,36.7062 44.1588,36.5262 C44.1788,36.3462 44.2154,36.1063 44.2688,35.8063 C44.3221,35.5062 44.3921,35.1429 44.4788,34.7163 C44.5654,34.2896 44.6754,33.7762 44.8088,33.1763 C44.8354,33.0429 44.8954,32.8296 44.9888,32.5363 C45.0821,32.2429 45.2054,31.9329 45.3588,31.6063 C45.5121,31.2796 45.6988,30.9629 45.9188,30.6562 C46.1388,30.3496 46.4021,30.1229 46.7088,29.9762 C46.9354,30.0296 47.2354,30.1663 47.6088,30.3862 C47.9821,30.6063 48.3021,30.9096 48.5688,31.2962 C48.2621,31.6429 48.0054,31.9896 47.7988,32.3363 C47.5921,32.6829 47.4054,33.0429 47.2388,33.4162 C47.0721,33.7896 46.9188,34.1763 46.7788,34.5762 C46.6388,34.9762 46.4821,35.3962 46.3088,35.8363 C46.1621,36.2096 46.0288,36.5929 45.9088,36.9863 C45.7888,37.3796 45.7221,37.7229 45.7088,38.0163 C45.7088,38.2562 45.7054,38.4263 45.6988,38.5262 C45.6921,38.6263 45.6554,38.6763 45.5888,38.6763 C45.5354,38.6763 45.4288,38.6429 45.2688,38.5762 C45.1088,38.5096 44.9454,38.4062 44.7788,38.2663 C44.6121,38.1263 44.4621,37.9496 44.3288,37.7363 C44.1954,37.5229 44.1288,37.2696 44.1288,36.9762 M47.9488,28.2962 C47.9488,28.2162 47.9688,28.0963 48.0088,27.9362 C47.9421,27.8696 47.8854,27.7696 47.8388,27.6362 C47.7921,27.5029 47.7688,27.3829 47.7688,27.2762 C47.7688,27.1562 47.7854,26.9929 47.8188,26.7862 C47.8521,26.5796 47.8954,26.3563 47.9488,26.1162 C48.0021,25.8762 48.0688,25.6262 48.1488,25.3662 C48.2288,25.1063 48.3088,24.8696 48.3888,24.6562 C48.5488,24.6562 48.7454,24.6996 48.9788,24.7862 C49.2121,24.8729 49.4488,24.9862 49.6888,25.1262 C49.9288,25.2663 50.1488,25.4196 50.3488,25.5863 C50.5488,25.7529 50.7021,25.9096 50.8088,26.0562 C50.6621,26.2029 50.4688,26.4062 50.2288,26.6663 C49.9888,26.9263 49.7554,27.1996 49.5288,27.4862 C49.3021,27.7729 49.0954,28.0429 48.9088,28.2962 C48.7221,28.5496 48.6021,28.7296 48.5488,28.8363 C48.3888,28.8096 48.2488,28.7396 48.1288,28.6262 C48.0088,28.5129 47.9488,28.4029 47.9488,28.2962 M52.0675,28.6162 C52.4142,28.7229 52.7409,28.9596 53.0475,29.3263 C53.3542,29.6929 53.5809,30.0963 53.7275,30.5362 C53.5809,30.8962 53.3542,31.3296 53.0475,31.8363 C52.7409,32.3429 52.4342,32.8596 52.1275,33.3862 C51.8209,33.9129 51.5442,34.4129 51.2975,34.8862 C51.0509,35.3596 50.9075,35.7496 50.8675,36.0563 C51.0809,35.8296 51.3175,35.5662 51.5775,35.2663 C51.8375,34.9663 52.0909,34.6662 52.3375,34.3662 C52.5842,34.0662 52.8142,33.7929 53.0275,33.5462 C53.2409,33.2996 53.4075,33.1162 53.5275,32.9963 C53.7809,32.7296 54.0809,32.4196 54.4275,32.0662 C54.7742,31.7129 55.1375,31.3796 55.5175,31.0662 C55.8975,30.7529 56.2809,30.4862 56.6675,30.2663 C57.0542,30.0462 57.4075,29.9363 57.7275,29.9363 C58.0742,29.9363 58.3642,30.0529 58.5975,30.2862 C58.8309,30.5196 59.0142,30.7629 59.1475,31.0163 C59.1475,31.0429 59.0975,31.0796 58.9975,31.1262 C58.8975,31.1729 58.7542,31.3029 58.5675,31.5163 C58.3809,31.7563 58.1709,32.0863 57.9375,32.5062 C57.7042,32.9263 57.4775,33.3796 57.2575,33.8662 C57.0375,34.3529 56.8542,34.8496 56.7075,35.3563 C56.5609,35.8629 56.4875,36.3229 56.4875,36.7363 C56.4875,37.0696 56.5309,37.2829 56.6175,37.3763 C56.7042,37.4696 56.8275,37.5163 56.9875,37.5163 C57.1342,37.5163 57.2875,37.4829 57.4475,37.4162 C57.6075,37.3496 57.7342,37.3162 57.8275,37.3162 C57.8809,37.3429 57.9242,37.3996 57.9575,37.4863 C57.9909,37.5729 58.0075,37.6496 58.0075,37.7163 C57.9009,37.8096 57.7742,37.9029 57.6275,37.9963 C57.4809,38.0896 57.3275,38.1763 57.1675,38.2562 C57.0075,38.3363 56.8509,38.4029 56.6975,38.4562 C56.5442,38.5096 56.4075,38.5363 56.2875,38.5363 C55.9009,38.5363 55.5842,38.4796 55.3375,38.3662 C55.0909,38.2529 54.8975,38.1029 54.7575,37.9162 C54.6175,37.7296 54.5209,37.5062 54.4675,37.2463 C54.4142,36.9863 54.3875,36.7096 54.3875,36.4162 C54.3875,36.2562 54.4009,36.0762 54.4275,35.8763 C54.4542,35.6763 54.5075,35.4396 54.5875,35.1662 C54.6675,34.8929 54.7809,34.5662 54.9275,34.1862 C55.0742,33.8063 55.2609,33.3496 55.4875,32.8162 C55.4609,32.8162 55.2809,32.9096 54.9475,33.0962 C54.6142,33.2829 54.2542,33.5696 53.8675,33.9562 C53.2409,34.5563 52.6775,35.1496 52.1775,35.7363 C51.6775,36.3229 51.1675,36.9762 50.6475,37.6963 C50.3542,38.1096 50.0975,38.4596 49.8775,38.7463 C49.6575,39.0329 49.4675,39.2229 49.3075,39.3162 C49.0275,39.1562 48.8209,38.9329 48.6875,38.6462 C48.5542,38.3596 48.4542,38.0629 48.3875,37.7562 C48.3875,37.5029 48.4242,37.1829 48.4975,36.7962 C48.5709,36.4096 48.6709,35.9796 48.7975,35.5062 C48.9242,35.0329 49.0809,34.5363 49.2675,34.0163 C49.4542,33.4963 49.6609,32.9762 49.8875,32.4562 C50.3942,31.2829 50.8575,30.3629 51.2775,29.6962 C51.6975,29.0296 51.9609,28.6696 52.0675,28.6162 M63.9844,28.9762 C64.2511,28.9762 64.5577,29.0562 64.9044,29.2162 C65.2511,29.3762 65.5577,29.5829 65.8244,29.8363 C65.7577,29.3029 65.6744,28.7996 65.5744,28.3263 C65.4744,27.8529 65.3277,27.3629 65.1344,26.8563 C64.9411,26.3496 64.6844,25.7962 64.3644,25.1963 C64.0444,24.5963 63.6444,23.9096 63.1644,23.1362 C63.2044,23.0163 63.2944,22.8763 63.4344,22.7162 C63.5744,22.5562 63.7344,22.4062 63.9144,22.2663 C64.0944,22.1263 64.2811,22.0029 64.4744,21.8962 C64.6677,21.7896 64.8511,21.7229 65.0244,21.6963 C65.3977,22.1096 65.7511,22.6263 66.0844,23.2463 C66.4177,23.8662 66.7111,24.5329 66.9644,25.2463 C67.2177,25.9596 67.4144,26.6963 67.5544,27.4562 C67.6944,28.2162 67.7644,28.9429 67.7644,29.6362 C67.7644,30.3296 67.6877,31.0429 67.5344,31.7762 C67.3811,32.5096 67.1677,33.2262 66.8944,33.9263 C66.6211,34.6263 66.3044,35.2896 65.9444,35.9162 C65.5844,36.5429 65.1944,37.1029 64.7744,37.5962 C64.3544,38.0896 63.9177,38.4929 63.4644,38.8063 C63.0111,39.1196 62.5577,39.3162 62.1044,39.3962 C61.1844,39.2896 60.4811,38.9929 59.9944,38.5062 C59.5077,38.0196 59.2644,37.3496 59.2644,36.4963 C59.2644,36.0429 59.3344,35.5496 59.4744,35.0163 C59.6144,34.4829 59.8011,33.9529 60.0344,33.4263 C60.2677,32.8996 60.5411,32.3862 60.8544,31.8862 C61.1677,31.3862 61.5011,30.9363 61.8544,30.5362 C62.2077,30.1362 62.5644,29.7962 62.9244,29.5163 C63.2844,29.2362 63.6377,29.0562 63.9844,28.9762 M61.9444,38.5962 C62.4111,38.4362 62.8777,38.0829 63.3444,37.5363 C63.8111,36.9896 64.2311,36.3462 64.6044,35.6063 C64.9777,34.8662 65.2811,34.0729 65.5144,33.2262 C65.7477,32.3796 65.8644,31.5629 65.8644,30.7762 C65.8644,30.5496 65.8644,30.4096 65.8644,30.3563 C65.8644,30.3029 65.8577,30.2496 65.8444,30.1962 C65.5244,30.3296 65.1844,30.5562 64.8244,30.8762 C64.4644,31.1962 64.1044,31.5662 63.7444,31.9862 C63.3844,32.4062 63.0444,32.8629 62.7244,33.3563 C62.4044,33.8496 62.1177,34.3429 61.8644,34.8363 C61.6111,35.3296 61.4111,35.8029 61.2644,36.2562 C61.1177,36.7096 61.0444,37.1096 61.0444,37.4562 C61.0444,38.1229 61.3444,38.5029 61.9444,38.5962 " style="stroke:none;fill-rule:nonzero;fill:#ffffff;fill-opacity:1;"/>
        </g>
        <g id="Shape6">
            <desc type="2" basicInfo-basicType="0" basicInfo-roundedRectRadius="12" basicInfo-polygonSides="6" basicInfo-starPoints="5" bounding="rect(-33.1049,-14.0183,66.2108,28.0366)" text="Flow" font-familyName="Kaushan Script" font-pixelSize="20" font-bold="0" font-underline="0" font-alignment="1" strokeStyle="0" markerStart="0" markerEnd="0" shadowEnabled="0" shadowOffsetX="0" shadowOffsetY="2" shadowBlur="4" shadowOpacity="160" blurEnabled="0" blurRadius="4" transform="matrix(1,0,0,1,50.9328,67.5292)" pers-center="0,0" pers-size="0,0" pers-start="0,0" pers-end="0,0" locked="0" mesh="" flag=""/>
            <path id="shapePath6" d="M42.8328,66.8455 C43.2595,66.8455 43.5961,66.9654 43.8428,67.2054 C44.0895,67.4454 44.2128,67.7788 44.2128,68.2054 C44.2128,68.3121 44.2061,68.4221 44.1928,68.5354 C44.1795,68.6488 44.1528,68.7454 44.1128,68.8254 C43.9395,68.7988 43.7461,68.7754 43.5328,68.7554 C43.3195,68.7355 43.0661,68.7254 42.7728,68.7254 C42.1728,68.7254 41.5728,68.7788 40.9728,68.8854 C40.3728,68.9921 39.7995,69.0788 39.2528,69.1454 C38.6528,70.5588 38.1595,71.8854 37.7728,73.1255 C37.3861,74.3654 37.0861,75.5921 36.8728,76.8055 C36.4195,76.6988 36.0195,76.5054 35.6728,76.2254 C35.3261,75.9454 34.9995,75.5521 34.6928,75.0454 C34.7861,74.8321 34.8995,74.5754 35.0328,74.2755 C35.1661,73.9754 35.3261,73.5954 35.5128,73.1354 C35.6995,72.6754 35.9228,72.1154 36.1828,71.4554 C36.4428,70.7954 36.7528,70.0054 37.1128,69.0854 C36.5528,68.8988 36.1861,68.5721 36.0128,68.1054 C36.0795,68.0388 36.2661,67.9621 36.5728,67.8755 C36.8795,67.7888 37.2528,67.6921 37.6928,67.5854 C37.8928,67.0654 38.0661,66.6021 38.2128,66.1954 C38.3595,65.7888 38.4928,65.4021 38.6128,65.0354 C38.7328,64.6688 38.8428,64.3088 38.9428,63.9554 C39.0428,63.6021 39.1328,63.2254 39.2128,62.8254 L39.1128,62.8254 C38.6061,62.8254 38.1961,62.7054 37.8828,62.4654 C37.5695,62.2254 37.4128,61.9121 37.4128,61.5254 C37.4128,61.4188 37.4295,61.2921 37.4628,61.1454 C37.4961,60.9988 37.5395,60.8721 37.5928,60.7654 C37.8461,60.8054 38.0961,60.8321 38.3428,60.8454 C38.5895,60.8588 38.9128,60.8654 39.3128,60.8654 C40.1528,60.8654 40.9395,60.8421 41.6728,60.7954 C42.4061,60.7488 43.0695,60.6988 43.6628,60.6454 C44.2561,60.5921 44.7661,60.5421 45.1928,60.4954 C45.6195,60.4488 45.9461,60.4254 46.1728,60.4254 C46.4795,60.4254 46.7528,60.5854 46.9928,60.9054 C47.2328,61.2254 47.4195,61.6788 47.5528,62.2654 C47.1261,62.2254 46.7828,62.1988 46.5228,62.1854 C46.2628,62.1721 46.0328,62.1654 45.8328,62.1654 C45.1528,62.1654 44.5295,62.1954 43.9628,62.2554 C43.3961,62.3154 42.8595,62.3854 42.3528,62.4654 C42.2728,62.5854 42.1828,62.7388 42.0828,62.9254 C41.9828,63.1121 41.8528,63.3754 41.6928,63.7154 C41.5328,64.0555 41.3295,64.4988 41.0828,65.0454 C40.8361,65.5921 40.5261,66.2854 40.1528,67.1255 C40.6728,67.0454 41.1695,66.9788 41.6428,66.9254 C42.1161,66.8721 42.5128,66.8455 42.8328,66.8455 M45.259,73.9054 C45.259,73.3188 45.3991,72.4954 45.6791,71.4354 C45.959,70.3755 46.3524,69.1388 46.8591,67.7254 C47.6857,65.4721 48.4624,63.5954 49.189,62.0954 C49.9157,60.5954 50.6257,59.4254 51.319,58.5854 C51.479,58.6121 51.6757,58.6788 51.909,58.7854 C52.1424,58.8921 52.3724,59.0088 52.599,59.1354 C52.8257,59.2621 53.029,59.3921 53.209,59.5254 C53.389,59.6588 53.5057,59.7654 53.5591,59.8454 C52.5191,61.0721 51.6057,62.3921 50.819,63.8054 C50.0324,65.2188 49.3124,66.8388 48.659,68.6655 C48.099,70.2388 47.6724,71.6554 47.3791,72.9155 C47.0857,74.1754 46.939,75.2254 46.939,76.0654 C46.939,76.2921 46.939,76.4321 46.939,76.4855 C46.939,76.5388 46.9457,76.5921 46.959,76.6454 C46.7724,76.6188 46.6124,76.5721 46.479,76.5054 C46.3457,76.4388 46.259,76.3588 46.2191,76.2654 C46.1924,76.1988 46.119,76.1021 45.9991,75.9754 C45.8791,75.8488 45.7724,75.7521 45.6791,75.6854 C45.5591,75.6054 45.459,75.3954 45.3791,75.0555 C45.299,74.7154 45.259,74.3321 45.259,73.9054 M52.264,75.8854 C51.5041,75.8055 50.8974,75.4721 50.444,74.8854 C49.9907,74.2988 49.764,73.5521 49.764,72.6454 C49.764,72.1121 49.8441,71.5588 50.0041,70.9855 C50.1641,70.4121 50.3907,69.8554 50.6841,69.3154 C50.9774,68.7754 51.3241,68.2654 51.724,67.7854 C52.1241,67.3055 52.5574,66.8921 53.0241,66.5454 C53.7574,65.9988 54.444,65.7254 55.084,65.7254 C55.5107,65.9521 55.9307,66.4254 56.3441,67.1454 C56.4107,67.1454 56.4707,67.1421 56.5241,67.1354 C56.5774,67.1288 56.6374,67.1255 56.704,67.1255 C57.4107,67.1255 57.764,67.7521 57.764,69.0054 C57.764,69.8455 57.6274,70.6421 57.354,71.3954 C57.0807,72.1488 56.7007,72.8321 56.2141,73.4454 C55.7274,74.0588 55.1474,74.5754 54.474,74.9954 C53.8007,75.4155 53.064,75.7121 52.264,75.8854 M53.284,69.5854 C53.0574,69.8921 52.8441,70.2254 52.6441,70.5854 C52.444,70.9454 52.2707,71.3088 52.1241,71.6754 C51.9774,72.0421 51.8641,72.3954 51.784,72.7355 C51.7041,73.0754 51.6641,73.3788 51.6641,73.6454 C51.6641,73.9654 51.7174,74.2721 51.8241,74.5654 C51.9307,74.8588 52.0507,75.0255 52.1841,75.0654 C52.784,74.9321 53.334,74.6821 53.834,74.3154 C54.334,73.9488 54.7674,73.4921 55.134,72.9454 C55.5007,72.3988 55.7874,71.7788 55.994,71.0854 C56.2007,70.3921 56.3041,69.6521 56.3041,68.8654 C56.3041,68.5188 56.284,68.2454 56.244,68.0454 C56.204,67.8455 56.1374,67.6721 56.0441,67.5254 C55.4574,67.6988 54.9341,67.9788 54.474,68.3654 C54.014,68.7521 53.6174,69.1588 53.284,69.5854 M58.8965,74.3654 C58.8965,74.0988 58.9266,73.7254 58.9865,73.2454 C59.0466,72.7654 59.1265,72.2454 59.2266,71.6854 C59.3265,71.1255 59.4399,70.5521 59.5666,69.9654 C59.6932,69.3788 59.8232,68.8521 59.9566,68.3854 C60.1299,67.7588 60.3999,67.2754 60.7665,66.9354 C61.1332,66.5955 61.5899,66.4254 62.1366,66.4254 C62.4299,66.4254 62.7199,66.4721 63.0065,66.5654 C63.2932,66.6588 63.4632,66.7788 63.5165,66.9254 C63.1299,67.2454 62.8199,67.6421 62.5866,68.1154 C62.3532,68.5888 62.1665,69.0955 62.0266,69.6354 C61.8866,70.1754 61.7799,70.7288 61.7066,71.2954 C61.6332,71.8621 61.5565,72.3921 61.4766,72.8854 C61.9165,72.2988 62.3332,71.7688 62.7266,71.2954 C63.1199,70.8221 63.4699,70.4454 63.7766,70.1655 C64.1899,69.7788 64.4699,69.4554 64.6165,69.1954 C64.7632,68.9354 64.8899,68.6521 64.9966,68.3455 C65.0766,68.1054 65.1732,67.8254 65.2866,67.5054 C65.3999,67.1854 65.5899,66.8921 65.8566,66.6255 C65.9099,66.6121 66.0232,66.6054 66.1965,66.6054 C66.3299,66.6054 66.4732,66.6121 66.6265,66.6255 C66.7799,66.6388 66.9232,66.6655 67.0565,66.7054 C67.1899,66.7454 67.3032,66.7921 67.3966,66.8455 C67.4899,66.8988 67.5432,66.9654 67.5565,67.0454 C67.3432,67.3254 67.1432,67.7621 66.9566,68.3554 C66.7699,68.9488 66.6032,69.5988 66.4566,70.3055 C66.3099,71.0121 66.1766,71.7154 66.0565,72.4155 C65.9366,73.1154 65.8299,73.7054 65.7365,74.1854 C65.7899,74.1588 65.9099,74.0521 66.0965,73.8654 C66.2832,73.6788 66.4932,73.4454 66.7265,73.1655 C66.9599,72.8854 67.2066,72.5788 67.4666,72.2454 C67.7265,71.9121 67.9566,71.5854 68.1565,71.2654 C68.4099,70.8788 68.6199,70.5154 68.7866,70.1754 C68.9532,69.8354 69.0999,69.4721 69.2265,69.0854 C69.3532,68.6988 69.4699,68.2688 69.5766,67.7954 C69.6832,67.3221 69.7966,66.7588 69.9165,66.1054 C69.9966,65.9988 70.1732,65.9088 70.4465,65.8354 C70.7199,65.7621 70.9699,65.7254 71.1965,65.7254 C71.3966,65.7254 71.5432,65.7588 71.6366,65.8254 C71.5699,66.5721 71.4465,67.2388 71.2665,67.8254 C71.0865,68.4121 70.8432,68.9821 70.5366,69.5354 C70.2299,70.0888 69.8499,70.6421 69.3966,71.1954 C68.9432,71.7488 68.4099,72.3521 67.7966,73.0054 C67.5432,73.2721 67.2665,73.5654 66.9666,73.8854 C66.6665,74.2054 66.3732,74.5021 66.0865,74.7755 C65.7999,75.0488 65.5332,75.2788 65.2866,75.4654 C65.0399,75.6521 64.8499,75.7454 64.7166,75.7454 C64.4099,75.7454 64.1565,75.6255 63.9566,75.3854 C63.7565,75.1454 63.6566,74.8388 63.6566,74.4654 C63.6566,74.0788 63.6732,73.7421 63.7066,73.4554 C63.7399,73.1688 63.7966,72.8654 63.8765,72.5454 C63.9566,72.2521 64.0199,72.0054 64.0666,71.8055 C64.1132,71.6054 64.1532,71.4321 64.1866,71.2854 C64.2199,71.1388 64.2432,71.0121 64.2565,70.9054 C64.2699,70.7988 64.2832,70.6921 64.2966,70.5854 C64.1899,70.6388 64.0499,70.7488 63.8765,70.9155 C63.7032,71.0821 63.5232,71.2754 63.3366,71.4954 C63.1499,71.7154 62.9632,71.9388 62.7766,72.1655 C62.5899,72.3921 62.4366,72.5854 62.3166,72.7454 C62.0632,73.0921 61.8432,73.3988 61.6566,73.6655 C61.4699,73.9321 61.2932,74.1854 61.1265,74.4254 C60.9599,74.6655 60.7966,74.9088 60.6366,75.1554 C60.4766,75.4021 60.2899,75.6655 60.0765,75.9454 C59.6499,75.8121 59.3465,75.6121 59.1665,75.3454 C58.9865,75.0788 58.8965,74.7521 58.8965,74.3654 " style="stroke:none;fill-rule:nonzero;fill:#40644f;fill-opacity:1;"/>
        </g>
    </g>
    <g id="Layer6" visibility="hidden">
        <g id="Shape7">
            <desc type="0" basicInfo-basicType="0" basicInfo-roundedRectRadius="12" basicInfo-polygonSides="6" basicInfo-starPoints="5" bounding="rect(-64.7693,-44.408,129.538,88.816)" text="" font-familyName="Kaushan Script" font-pixelSize="80" font-bold="0" font-underline="0" font-alignment="1" strokeStyle="0" markerStart="0" markerEnd="0" shadowEnabled="0" shadowOffsetX="0" shadowOffsetY="2" shadowBlur="4" shadowOpacity="160" blurEnabled="0" blurRadius="4" transform="matrix(2.26005,0,0,1,156.743,47.5164)" pers-center="0,0" pers-size="0,0" pers-start="0,0" pers-end="0,0" locked="0" mesh="" flag=""/>
            <path id="shapePath7" d="M210.357,5.8149 C232.708,1.04813 259.314,2.86636 276.689,9.00944 C295.216,15.5595 306.094,27.9937 302.41,38.3593 C297.28,52.7933 277.651,66.6856 252.774,76.2946 C228.765,85.5681 195.712,91.1922 163.879,91.868 C132.695,92.53 100.731,87.2852 74.0826,80.0881 C52.4002,74.2322 36.7118,64.2823 24.8975,54.3321 C14.3102,45.4153 8.47787,34.997 10.909,24.9822 C12.0723,20.1903 14.9702,5.99012 14.9702,10.8064 C14.9702,36.2358 31.3481,46.1577 70.9239,47.7433 C128.849,50.0641 158.383,16.8995 210.357,5.8149 Z" style="stroke:none;fill-rule:evenodd;fill:#c52124;fill-opacity:1;"/>
        </g>
    </g>
</svg>
