<?xml version="1.0"?>
<svg version="1.1" xmlns="http://www.w3.org/2000/svg" xmlns:xlink="http://www.w3.org/1999/xlink" width="100" height="100">
    <desc iVinci="yes" version="4.1" gridStep="20" showGrid="yes" snapToGrid="no" codePlatform="0"/>
    <g id="Layer1" visibility="hidden">
        <g id="Shape1">
            <desc type="0" basicInfo-basicType="0" basicInfo-roundedRectRadius="12" basicInfo-polygonSides="6" basicInfo-starPoints="5" bounding="rect(-157.006,-125.775,314.013,251.55)" text="" font-familyName="Kaushan Script" font-pixelSize="80" font-bold="0" font-underline="0" font-alignment="1" strokeStyle="0" markerStart="0" markerEnd="0" shadowEnabled="0" shadowOffsetX="0" shadowOffsetY="2" shadowBlur="4" shadowOpacity="160" blurEnabled="0" blurRadius="4" transform="matrix(0.478483,0.478485,-0.597446,0.597444,150.268,149.982)" pers-center="0,0" pers-size="0,0" pers-start="0,0" pers-end="0,0" locked="0" mesh="" flag=""/>
            <path id="shapePath1" d="M150.574,-1.52588e-05 L300,150.462 L150.5,300 L1.52588e-05,150 L150.574,-1.52588e-05 Z" style="stroke:none;fill-rule:evenodd;fill:#aed8c1;fill-opacity:1;"/>
        </g>
    </g>
    <g id="Layer2">
        <g id="Shape2">
            <desc type="0" basicInfo-basicType="2" basicInfo-roundedRectRadius="20" basicInfo-polygonSides="6" basicInfo-starPoints="5" bounding="rect(-106.598,-105.532,213.197,211.064)" text="" font-familyName="Kaushan Script" font-pixelSize="80" font-bold="0" font-underline="0" font-alignment="1" strokeStyle="0" markerStart="0" markerEnd="0" shadowEnabled="0" shadowOffsetX="0" shadowOffsetY="2" shadowBlur="4" shadowOpacity="160" blurEnabled="0" blurRadius="4" transform="matrix(0.243855,0.244741,-0.243833,0.244763,50.091,50.2228)" pers-center="0,0" pers-size="0,0" pers-start="0,0" pers-end="0,0" locked="0" mesh="" flag=""/>
            <path id="shapePath2" d="M44.952,3.19905 C47.6452,0.495472 52.0121,0.495258 54.7057,3.1986 L96.9407,45.5868 C99.6343,48.2901 99.6345,52.6732 96.9411,55.3767 L55.23,97.2471 C52.5368,99.9507 48.1699,99.9509 45.4763,97.2475 L3.24131,54.8593 C0.547764,52.156 0.547554,47.773 3.24086,45.0694 L44.952,3.19905 Z" style="stroke:none;fill-rule:evenodd;fill:#40644f;fill-opacity:1;"/>
        </g>
    </g>
    <g id="Layer3">
        <g id="Shape3">
            <desc type="0" basicInfo-basicType="0" basicInfo-roundedRectRadius="12" basicInfo-polygonSides="6" basicInfo-starPoints="5" bounding="rect(-53.5135,-74.7663,107.027,149.533)" text="" font-familyName="Kaushan Script" font-pixelSize="80" font-bold="0" font-underline="0" font-alignment="1" strokeStyle="0" markerStart="0" markerEnd="0" shadowEnabled="0" shadowOffsetX="0" shadowOffsetY="2" shadowBlur="4" shadowOpacity="160" blurEnabled="0" blurRadius="4" transform="matrix(0.814954,0,0,0.329911,48.9568,67.8838)" pers-center="0,0" pers-size="0,0" pers-start="0,0" pers-end="0,0" locked="0" mesh="" flag=""/>
            <path id="shapePath3" d="M67.5491,43.2176 C92.1064,43.2176 92.5675,49.8966 92.5675,51.0747 C92.5675,52.2898 90.7931,54.0139 90.7931,54.0139 C90.7931,54.0139 53.7665,90.9907 53.7665,90.9907 C50.991,93.1142 50.1679,93.0251 47.4609,90.9907 C47.4609,90.9907 9.87162,54.0139 9.87162,54.0139 C9.87162,54.0139 9.87162,54.0139 6.35294,50.6558 C4.35116,48.7454 5.95147,43.9308 5.95147,45.6952 C5.95147,47.3131 5.88495,55.4098 33.816,55.4098 C67.5491,55.4098 33.8078,43.2176 67.5491,43.2176 Z" style="stroke:none;fill-rule:evenodd;fill:#ffffff;fill-opacity:1;"/>
        </g>
    </g>
    <g id="Layer4" visibility="hidden">
        <g id="Shape4">
            <desc type="0" basicInfo-basicType="0" basicInfo-roundedRectRadius="12" basicInfo-polygonSides="6" basicInfo-starPoints="5" bounding="rect(-60.5112,-78.5697,121.022,157.139)" text="" font-familyName="Kaushan Script" font-pixelSize="80" font-bold="0" font-underline="0" font-alignment="1" strokeStyle="0" markerStart="0" markerEnd="0" shadowEnabled="0" shadowOffsetX="0" shadowOffsetY="2" shadowBlur="4" shadowOpacity="160" blurEnabled="0" blurRadius="4" transform="matrix(2.4581,0,0,1.01348,150.296,216.201)" pers-center="0,0" pers-size="0,0" pers-start="0,0" pers-end="0,0" locked="0" mesh="" flag=""/>
            <path id="shapePath4" d="M202.426,136.572 C281.457,136.572 299.039,147.945 299.039,151.564 C299.039,155.297 294.989,157.751 294.989,157.751 C294.989,157.751 204.016,249.161 163.88,289.579 C155.508,298.01 147.493,297.815 139.414,289.579 C98.2587,247.628 19.5746,171.945 19.5746,171.945 C19.5746,171.945 -1.03822,150.461 1.82692,150.461 C37.5253,150.461 33.4655,169.738 100.679,169.738 C181.872,169.738 115.699,136.572 202.426,136.572 Z" style="stroke:none;fill-rule:evenodd;fill:#ffffff;fill-opacity:1;"/>
        </g>
    </g>
    <g id="Layer5">
        <g id="Shape5">
            <desc type="2" basicInfo-basicType="0" basicInfo-roundedRectRadius="12" basicInfo-polygonSides="6" basicInfo-starPoints="5" bounding="rect(-41.3817,-12.4609,82.7634,24.9213)" text="Mind" font-familyName="Kaushan Script" font-pixelSize="20" font-bold="0" font-underline="0" font-alignment="1" strokeStyle="0" markerStart="0" markerEnd="0" shadowEnabled="0" shadowOffsetX="0" shadowOffsetY="2" shadowBlur="4" shadowOpacity="160" blurEnabled="0" blurRadius="4" transform="matrix(1,0,0,1,45.0594,31.0975)" pers-center="0,0" pers-size="0,0" pers-start="0,0" pers-end="0,0" locked="0" mesh="" flag=""/>
            <path id="shapePath5" d="M34.0582,39.7963 C34.0315,39.8096 34.0048,39.8163 33.9782,39.8163 C33.9515,39.8163 33.8982,39.8163 33.8182,39.8163 C33.6315,39.8163 33.4148,39.7863 33.1682,39.7263 C32.9215,39.6663 32.6815,39.593 32.4482,39.5063 C32.2148,39.4196 32.0148,39.323 31.8482,39.2163 C31.6815,39.1096 31.5782,39.0163 31.5382,38.9363 C31.5248,38.7496 31.5182,38.5563 31.5182,38.3563 C31.5182,38.1563 31.5182,37.963 31.5182,37.7763 C31.5182,36.283 31.6282,34.723 31.8482,33.0963 C32.0682,31.4696 32.4315,29.7096 32.9382,27.8163 C32.9915,27.6296 33.0482,27.393 33.1082,27.1063 C33.1682,26.8196 33.2315,26.5096 33.2982,26.1763 C32.9782,26.4296 32.5982,26.833 32.1582,27.3863 C31.7182,27.9396 31.2548,28.593 30.7682,29.3463 C30.2815,30.0996 29.7948,30.9263 29.3082,31.8263 C28.8215,32.7263 28.3782,33.6396 27.9782,34.5663 C27.5782,35.493 27.2348,36.4096 26.9482,37.3163 C26.6615,38.223 26.4848,39.063 26.4182,39.8363 C25.7782,39.6496 25.3348,39.463 25.0882,39.2763 C24.8415,39.0896 24.7182,38.863 24.7182,38.5963 C24.7182,38.3563 24.7915,38.0163 24.9382,37.5763 C25.0848,37.1363 25.2915,36.6163 25.5582,36.0163 C25.8248,35.4163 26.1515,34.7463 26.5382,34.0063 C26.9248,33.2663 27.3515,32.4696 27.8182,31.6163 C28.3515,30.643 28.8748,29.7296 29.3882,28.8763 C29.9015,28.023 30.4048,27.2496 30.8982,26.5563 C31.3915,25.863 31.8748,25.263 32.3482,24.7563 C32.8215,24.2496 33.2915,23.863 33.7582,23.5963 C33.9448,23.5963 34.1948,23.643 34.5082,23.7363 C34.8215,23.8296 35.1282,23.943 35.4282,24.0763 C35.7282,24.2096 35.9948,24.3463 36.2282,24.4863 C36.4615,24.6263 36.5915,24.743 36.6182,24.8363 C36.4315,25.2096 36.2115,25.7696 35.9582,26.5163 C35.7048,27.263 35.4482,28.1096 35.1882,29.0563 C34.9282,30.003 34.6815,31.0063 34.4482,32.0663 C34.2148,33.1263 34.0315,34.143 33.8982,35.1163 C34.2048,34.383 34.5615,33.6196 34.9682,32.8263 C35.3748,32.033 35.8048,31.2463 36.2582,30.4663 C36.7115,29.6863 37.1748,28.9296 37.6482,28.1963 C38.1215,27.463 38.5848,26.793 39.0382,26.1863 C39.4915,25.5796 39.9148,25.0496 40.3082,24.5963 C40.7015,24.143 41.0515,23.8096 41.3582,23.5963 C41.5448,23.5963 41.7948,23.643 42.1082,23.7363 C42.4215,23.8296 42.7282,23.943 43.0282,24.0763 C43.3282,24.2096 43.5948,24.3463 43.8282,24.4863 C44.0615,24.6263 44.1915,24.743 44.2182,24.8363 C43.7915,25.5963 43.4182,26.523 43.0982,27.6163 C42.7782,28.7096 42.5082,29.8563 42.2882,31.0563 C42.0682,32.2563 41.9015,33.4463 41.7882,34.6263 C41.6748,35.8063 41.6182,36.863 41.6182,37.7963 C41.6182,38.103 41.6182,38.423 41.6182,38.7563 C41.6182,39.0896 41.6315,39.4363 41.6582,39.7963 C41.4715,39.7963 41.2482,39.773 40.9882,39.7263 C40.7282,39.6796 40.4748,39.6163 40.2282,39.5363 C39.9815,39.4563 39.7582,39.3663 39.5582,39.2663 C39.3582,39.1663 39.2182,39.0563 39.1382,38.9363 C39.1248,38.7496 39.1182,38.5563 39.1182,38.3563 C39.1182,38.1563 39.1182,37.963 39.1182,37.7763 C39.1182,36.283 39.2282,34.723 39.4482,33.0963 C39.6682,31.4696 40.0315,29.7096 40.5382,27.8163 C40.5915,27.6296 40.6515,27.3763 40.7182,27.0563 C40.7848,26.7363 40.8515,26.403 40.9182,26.0563 C40.5448,26.243 40.1215,26.5996 39.6482,27.1263 C39.1748,27.653 38.6948,28.293 38.2082,29.0463 C37.7215,29.7996 37.2415,30.6363 36.7682,31.5563 C36.2948,32.4763 35.8682,33.413 35.4882,34.3663 C35.1082,35.3196 34.7882,36.2663 34.5282,37.2063 C34.2682,38.1463 34.1115,39.0096 34.0582,39.7963 M44.1288,36.9763 C44.1288,36.8563 44.1388,36.7063 44.1588,36.5263 C44.1788,36.3463 44.2155,36.1063 44.2688,35.8063 C44.3221,35.5063 44.3921,35.143 44.4788,34.7163 C44.5655,34.2896 44.6755,33.7763 44.8088,33.1763 C44.8355,33.043 44.8955,32.8296 44.9888,32.5363 C45.0821,32.243 45.2055,31.933 45.3588,31.6063 C45.5121,31.2796 45.6988,30.963 45.9188,30.6563 C46.1388,30.3496 46.4021,30.123 46.7088,29.9763 C46.9355,30.0296 47.2355,30.1663 47.6088,30.3863 C47.9821,30.6063 48.3021,30.9096 48.5688,31.2963 C48.2621,31.643 48.0055,31.9896 47.7988,32.3363 C47.5921,32.683 47.4055,33.043 47.2388,33.4163 C47.0721,33.7896 46.9188,34.1763 46.7788,34.5763 C46.6388,34.9763 46.4821,35.3963 46.3088,35.8363 C46.1621,36.2096 46.0288,36.593 45.9088,36.9863 C45.7888,37.3796 45.7221,37.723 45.7088,38.0163 C45.7088,38.2563 45.7055,38.4263 45.6988,38.5263 C45.6921,38.6263 45.6555,38.6763 45.5888,38.6763 C45.5355,38.6763 45.4288,38.643 45.2688,38.5763 C45.1088,38.5096 44.9455,38.4063 44.7788,38.2663 C44.6121,38.1263 44.4621,37.9496 44.3288,37.7363 C44.1955,37.523 44.1288,37.2696 44.1288,36.9763 M47.9488,28.2963 C47.9488,28.2163 47.9688,28.0963 48.0088,27.9363 C47.9421,27.8696 47.8855,27.7696 47.8388,27.6363 C47.7921,27.503 47.7688,27.383 47.7688,27.2763 C47.7688,27.1563 47.7855,26.993 47.8188,26.7863 C47.8521,26.5796 47.8955,26.3563 47.9488,26.1163 C48.0021,25.8763 48.0688,25.6263 48.1488,25.3663 C48.2288,25.1063 48.3088,24.8696 48.3888,24.6563 C48.5488,24.6563 48.7455,24.6996 48.9788,24.7863 C49.2121,24.873 49.4488,24.9863 49.6888,25.1263 C49.9288,25.2663 50.1488,25.4196 50.3488,25.5863 C50.5488,25.753 50.7021,25.9096 50.8088,26.0563 C50.6621,26.203 50.4688,26.4063 50.2288,26.6663 C49.9888,26.9263 49.7555,27.1996 49.5288,27.4863 C49.3021,27.773 49.0955,28.043 48.9088,28.2963 C48.7221,28.5496 48.6021,28.7296 48.5488,28.8363 C48.3888,28.8096 48.2488,28.7396 48.1288,28.6263 C48.0088,28.513 47.9488,28.403 47.9488,28.2963 M52.0676,28.6163 C52.4142,28.723 52.7409,28.9596 53.0476,29.3263 C53.3542,29.693 53.5809,30.0963 53.7276,30.5363 C53.5809,30.8963 53.3542,31.3296 53.0476,31.8363 C52.7409,32.343 52.4342,32.8596 52.1276,33.3863 C51.8209,33.913 51.5442,34.413 51.2976,34.8863 C51.0509,35.3596 50.9076,35.7496 50.8676,36.0563 C51.0809,35.8296 51.3176,35.5663 51.5776,35.2663 C51.8376,34.9663 52.0909,34.6663 52.3376,34.3663 C52.5842,34.0663 52.8142,33.793 53.0276,33.5463 C53.2409,33.2996 53.4076,33.1163 53.5276,32.9963 C53.7809,32.7296 54.0809,32.4196 54.4276,32.0663 C54.7742,31.713 55.1376,31.3796 55.5176,31.0663 C55.8976,30.753 56.2809,30.4863 56.6676,30.2663 C57.0542,30.0463 57.4076,29.9363 57.7276,29.9363 C58.0742,29.9363 58.3642,30.053 58.5976,30.2863 C58.8309,30.5196 59.0142,30.763 59.1476,31.0163 C59.1476,31.043 59.0976,31.0796 58.9976,31.1263 C58.8976,31.173 58.7542,31.303 58.5676,31.5163 C58.3809,31.7563 58.1709,32.0863 57.9376,32.5063 C57.7042,32.9263 57.4776,33.3796 57.2576,33.8663 C57.0376,34.353 56.8542,34.8496 56.7076,35.3563 C56.5609,35.863 56.4876,36.323 56.4876,36.7363 C56.4876,37.0696 56.5309,37.283 56.6176,37.3763 C56.7042,37.4696 56.8276,37.5163 56.9876,37.5163 C57.1342,37.5163 57.2876,37.483 57.4476,37.4163 C57.6076,37.3496 57.7342,37.3163 57.8276,37.3163 C57.8809,37.343 57.9242,37.3996 57.9576,37.4863 C57.9909,37.573 58.0076,37.6496 58.0076,37.7163 C57.9009,37.8096 57.7742,37.903 57.6276,37.9963 C57.4809,38.0896 57.3276,38.1763 57.1676,38.2563 C57.0076,38.3363 56.8509,38.403 56.6976,38.4563 C56.5442,38.5096 56.4076,38.5363 56.2876,38.5363 C55.9009,38.5363 55.5842,38.4796 55.3376,38.3663 C55.0909,38.253 54.8976,38.103 54.7576,37.9163 C54.6176,37.7296 54.5209,37.5063 54.4676,37.2463 C54.4142,36.9863 54.3876,36.7096 54.3876,36.4163 C54.3876,36.2563 54.4009,36.0763 54.4276,35.8763 C54.4542,35.6763 54.5076,35.4396 54.5876,35.1663 C54.6676,34.893 54.7809,34.5663 54.9276,34.1863 C55.0742,33.8063 55.2609,33.3496 55.4876,32.8163 C55.4609,32.8163 55.2809,32.9096 54.9476,33.0963 C54.6142,33.283 54.2542,33.5696 53.8676,33.9563 C53.2409,34.5563 52.6776,35.1496 52.1776,35.7363 C51.6776,36.323 51.1676,36.9763 50.6476,37.6963 C50.3542,38.1096 50.0976,38.4596 49.8776,38.7463 C49.6576,39.033 49.4676,39.223 49.3076,39.3163 C49.0276,39.1563 48.8209,38.933 48.6876,38.6463 C48.5542,38.3596 48.4542,38.063 48.3876,37.7563 C48.3876,37.503 48.4242,37.183 48.4976,36.7963 C48.5709,36.4096 48.6709,35.9796 48.7976,35.5063 C48.9242,35.033 49.0809,34.5363 49.2676,34.0163 C49.4542,33.4963 49.6609,32.9763 49.8876,32.4563 C50.3942,31.283 50.8576,30.363 51.2776,29.6963 C51.6976,29.0296 51.9609,28.6696 52.0676,28.6163 M63.9844,28.9763 C64.2511,28.9763 64.5578,29.0563 64.9044,29.2163 C65.2511,29.3763 65.5578,29.583 65.8244,29.8363 C65.7578,29.303 65.6744,28.7996 65.5744,28.3263 C65.4744,27.853 65.3278,27.363 65.1344,26.8563 C64.9411,26.3496 64.6844,25.7963 64.3644,25.1963 C64.0444,24.5963 63.6444,23.9096 63.1644,23.1363 C63.2044,23.0163 63.2944,22.8763 63.4344,22.7163 C63.5744,22.5563 63.7344,22.4063 63.9144,22.2663 C64.0944,22.1263 64.2811,22.003 64.4744,21.8963 C64.6678,21.7896 64.8511,21.723 65.0244,21.6963 C65.3978,22.1096 65.7511,22.6263 66.0844,23.2463 C66.4178,23.8663 66.7111,24.533 66.9644,25.2463 C67.2178,25.9596 67.4144,26.6963 67.5544,27.4563 C67.6944,28.2163 67.7644,28.943 67.7644,29.6363 C67.7644,30.3296 67.6878,31.043 67.5344,31.7763 C67.3811,32.5096 67.1678,33.2263 66.8944,33.9263 C66.6211,34.6263 66.3044,35.2896 65.9444,35.9163 C65.5844,36.543 65.1944,37.103 64.7744,37.5963 C64.3544,38.0896 63.9178,38.493 63.4644,38.8063 C63.0111,39.1196 62.5578,39.3163 62.1044,39.3963 C61.1844,39.2896 60.4811,38.993 59.9944,38.5063 C59.5078,38.0196 59.2644,37.3496 59.2644,36.4963 C59.2644,36.043 59.3344,35.5496 59.4744,35.0163 C59.6144,34.483 59.8011,33.953 60.0344,33.4263 C60.2678,32.8996 60.5411,32.3863 60.8544,31.8863 C61.1678,31.3863 61.5011,30.9363 61.8544,30.5363 C62.2078,30.1363 62.5644,29.7963 62.9244,29.5163 C63.2844,29.2363 63.6378,29.0563 63.9844,28.9763 M61.9444,38.5963 C62.4111,38.4363 62.8778,38.083 63.3444,37.5363 C63.8111,36.9896 64.2311,36.3463 64.6044,35.6063 C64.9778,34.8663 65.2811,34.073 65.5144,33.2263 C65.7478,32.3796 65.8644,31.563 65.8644,30.7763 C65.8644,30.5496 65.8644,30.4096 65.8644,30.3563 C65.8644,30.303 65.8578,30.2496 65.8444,30.1963 C65.5244,30.3296 65.1844,30.5563 64.8244,30.8763 C64.4644,31.1963 64.1044,31.5663 63.7444,31.9863 C63.3844,32.4063 63.0444,32.863 62.7244,33.3563 C62.4044,33.8496 62.1178,34.343 61.8644,34.8363 C61.6111,35.3296 61.4111,35.803 61.2644,36.2563 C61.1178,36.7096 61.0444,37.1096 61.0444,37.4563 C61.0444,38.123 61.3444,38.503 61.9444,38.5963 " style="stroke:none;fill-rule:nonzero;fill:#ffffff;fill-opacity:1;"/>
        </g>
        <g id="Shape6">
            <desc type="2" basicInfo-basicType="0" basicInfo-roundedRectRadius="12" basicInfo-polygonSides="6" basicInfo-starPoints="5" bounding="rect(-33.1049,-14.0183,66.2108,28.0366)" text="Flow" font-familyName="Kaushan Script" font-pixelSize="20" font-bold="0" font-underline="0" font-alignment="1" strokeStyle="0" markerStart="0" markerEnd="0" shadowEnabled="0" shadowOffsetX="0" shadowOffsetY="2" shadowBlur="4" shadowOpacity="160" blurEnabled="0" blurRadius="4" transform="matrix(1,0,0,1,50.9328,67.5292)" pers-center="0,0" pers-size="0,0" pers-start="0,0" pers-end="0,0" locked="0" mesh="" flag=""/>
            <path id="shapePath6" d="M42.8328,66.8455 C43.2595,66.8455 43.5961,66.9655 43.8428,67.2055 C44.0895,67.4455 44.2128,67.7788 44.2128,68.2055 C44.2128,68.3121 44.2061,68.4221 44.1928,68.5355 C44.1795,68.6488 44.1528,68.7455 44.1128,68.8255 C43.9395,68.7988 43.7461,68.7755 43.5328,68.7555 C43.3195,68.7355 43.0661,68.7255 42.7728,68.7255 C42.1728,68.7255 41.5728,68.7788 40.9728,68.8855 C40.3728,68.9921 39.7995,69.0788 39.2528,69.1455 C38.6528,70.5588 38.1595,71.8855 37.7728,73.1255 C37.3861,74.3655 37.0861,75.5922 36.8728,76.8055 C36.4195,76.6988 36.0195,76.5055 35.6728,76.2255 C35.3261,75.9455 34.9995,75.5522 34.6928,75.0455 C34.7861,74.8322 34.8995,74.5755 35.0328,74.2755 C35.1661,73.9755 35.3261,73.5955 35.5128,73.1355 C35.6995,72.6755 35.9228,72.1155 36.1828,71.4555 C36.4428,70.7955 36.7528,70.0055 37.1128,69.0855 C36.5528,68.8988 36.1861,68.5722 36.0128,68.1055 C36.0795,68.0388 36.2661,67.9622 36.5728,67.8755 C36.8795,67.7888 37.2528,67.6922 37.6928,67.5855 C37.8928,67.0655 38.0661,66.6021 38.2128,66.1955 C38.3595,65.7888 38.4928,65.4022 38.6128,65.0355 C38.7328,64.6688 38.8428,64.3088 38.9428,63.9555 C39.0428,63.6022 39.1328,63.2255 39.2128,62.8255 L39.1128,62.8255 C38.6061,62.8255 38.1961,62.7055 37.8828,62.4655 C37.5695,62.2255 37.4128,61.9122 37.4128,61.5255 C37.4128,61.4188 37.4295,61.2922 37.4628,61.1455 C37.4961,60.9988 37.5395,60.8722 37.5928,60.7655 C37.8461,60.8055 38.0961,60.8322 38.3428,60.8455 C38.5895,60.8588 38.9128,60.8655 39.3128,60.8655 C40.1528,60.8655 40.9395,60.8422 41.6728,60.7955 C42.4061,60.7488 43.0695,60.6988 43.6628,60.6455 C44.2561,60.5922 44.7661,60.5422 45.1928,60.4955 C45.6195,60.4488 45.9461,60.4255 46.1728,60.4255 C46.4795,60.4255 46.7528,60.5855 46.9928,60.9055 C47.2328,61.2255 47.4195,61.6788 47.5528,62.2655 C47.1261,62.2255 46.7828,62.1988 46.5228,62.1855 C46.2628,62.1722 46.0328,62.1655 45.8328,62.1655 C45.1528,62.1655 44.5295,62.1955 43.9628,62.2555 C43.3961,62.3155 42.8595,62.3855 42.3528,62.4655 C42.2728,62.5855 42.1828,62.7388 42.0828,62.9255 C41.9828,63.1122 41.8528,63.3755 41.6928,63.7155 C41.5328,64.0555 41.3295,64.4988 41.0828,65.0455 C40.8361,65.5922 40.5261,66.2855 40.1528,67.1255 C40.6728,67.0455 41.1695,66.9788 41.6428,66.9255 C42.1161,66.8722 42.5128,66.8455 42.8328,66.8455 M45.2591,73.9055 C45.2591,73.3188 45.3991,72.4955 45.6791,71.4355 C45.9591,70.3755 46.3524,69.1388 46.8591,67.7255 C47.6857,65.4722 48.4624,63.5955 49.1891,62.0955 C49.9157,60.5955 50.6257,59.4255 51.3191,58.5855 C51.4791,58.6122 51.6757,58.6788 51.9091,58.7855 C52.1424,58.8922 52.3724,59.0088 52.5991,59.1355 C52.8257,59.2622 53.0291,59.3922 53.2091,59.5255 C53.3891,59.6588 53.5057,59.7655 53.5591,59.8455 C52.5191,61.0722 51.6057,62.3922 50.8191,63.8055 C50.0324,65.2188 49.3124,66.8388 48.6591,68.6655 C48.0991,70.2388 47.6724,71.6555 47.3791,72.9155 C47.0857,74.1755 46.9391,75.2255 46.9391,76.0655 C46.9391,76.2922 46.9391,76.4322 46.9391,76.4855 C46.9391,76.5388 46.9457,76.5922 46.9591,76.6455 C46.7724,76.6188 46.6124,76.5722 46.4791,76.5055 C46.3457,76.4388 46.2591,76.3588 46.2191,76.2655 C46.1924,76.1988 46.1191,76.1021 45.9991,75.9755 C45.8791,75.8488 45.7724,75.7522 45.6791,75.6855 C45.5591,75.6055 45.4591,75.3955 45.3791,75.0555 C45.2991,74.7155 45.2591,74.3322 45.2591,73.9055 M52.2641,75.8855 C51.5041,75.8055 50.8974,75.4722 50.4441,74.8855 C49.9907,74.2988 49.7641,73.5522 49.7641,72.6455 C49.7641,72.1122 49.8441,71.5588 50.0041,70.9855 C50.1641,70.4122 50.3907,69.8555 50.6841,69.3155 C50.9774,68.7755 51.3241,68.2655 51.7241,67.7855 C52.1241,67.3055 52.5574,66.8922 53.0241,66.5455 C53.7574,65.9988 54.4441,65.7255 55.0841,65.7255 C55.5107,65.9522 55.9307,66.4255 56.3441,67.1455 C56.4107,67.1455 56.4707,67.1422 56.5241,67.1355 C56.5774,67.1288 56.6374,67.1255 56.7041,67.1255 C57.4107,67.1255 57.7641,67.7522 57.7641,69.0055 C57.7641,69.8455 57.6274,70.6422 57.3541,71.3955 C57.0807,72.1488 56.7007,72.8322 56.2141,73.4455 C55.7274,74.0588 55.1474,74.5755 54.4741,74.9955 C53.8007,75.4155 53.0641,75.7122 52.2641,75.8855 M53.2841,69.5855 C53.0574,69.8922 52.8441,70.2255 52.6441,70.5855 C52.4441,70.9455 52.2707,71.3088 52.1241,71.6755 C51.9774,72.0422 51.8641,72.3955 51.7841,72.7355 C51.7041,73.0755 51.6641,73.3788 51.6641,73.6455 C51.6641,73.9655 51.7174,74.2722 51.8241,74.5655 C51.9307,74.8588 52.0507,75.0255 52.1841,75.0655 C52.7841,74.9322 53.3341,74.6822 53.8341,74.3155 C54.3341,73.9488 54.7674,73.4921 55.1341,72.9455 C55.5007,72.3988 55.7874,71.7788 55.9941,71.0855 C56.2007,70.3922 56.3041,69.6522 56.3041,68.8655 C56.3041,68.5188 56.2841,68.2455 56.2441,68.0455 C56.2041,67.8455 56.1374,67.6721 56.0441,67.5255 C55.4574,67.6988 54.9341,67.9788 54.4741,68.3655 C54.0141,68.7522 53.6174,69.1588 53.2841,69.5855 M58.8966,74.3655 C58.8966,74.0988 58.9266,73.7255 58.9866,73.2455 C59.0466,72.7655 59.1266,72.2455 59.2266,71.6855 C59.3266,71.1255 59.4399,70.5522 59.5666,69.9655 C59.6932,69.3788 59.8232,68.8521 59.9566,68.3855 C60.1299,67.7588 60.3999,67.2755 60.7666,66.9355 C61.1332,66.5955 61.5899,66.4255 62.1366,66.4255 C62.4299,66.4255 62.7199,66.4722 63.0066,66.5655 C63.2932,66.6588 63.4632,66.7788 63.5166,66.9255 C63.1299,67.2455 62.8199,67.6422 62.5866,68.1155 C62.3532,68.5888 62.1666,69.0955 62.0266,69.6355 C61.8866,70.1755 61.7799,70.7288 61.7066,71.2955 C61.6332,71.8622 61.5566,72.3922 61.4766,72.8855 C61.9166,72.2988 62.3332,71.7688 62.7266,71.2955 C63.1199,70.8222 63.4699,70.4455 63.7766,70.1655 C64.1899,69.7788 64.4699,69.4555 64.6166,69.1955 C64.7632,68.9355 64.8899,68.6522 64.9966,68.3455 C65.0766,68.1055 65.1732,67.8255 65.2866,67.5055 C65.3999,67.1855 65.5899,66.8922 65.8566,66.6255 C65.9099,66.6122 66.0232,66.6055 66.1966,66.6055 C66.3299,66.6055 66.4732,66.6122 66.6266,66.6255 C66.7799,66.6388 66.9232,66.6655 67.0566,66.7055 C67.1899,66.7455 67.3032,66.7922 67.3966,66.8455 C67.4899,66.8988 67.5432,66.9655 67.5566,67.0455 C67.3432,67.3255 67.1432,67.7622 66.9566,68.3555 C66.7699,68.9488 66.6032,69.5988 66.4566,70.3055 C66.3099,71.0122 66.1766,71.7155 66.0566,72.4155 C65.9366,73.1155 65.8299,73.7055 65.7366,74.1855 C65.7899,74.1588 65.9099,74.0522 66.0966,73.8655 C66.2832,73.6788 66.4932,73.4455 66.7266,73.1655 C66.9599,72.8855 67.2066,72.5788 67.4666,72.2455 C67.7266,71.9122 67.9566,71.5855 68.1566,71.2655 C68.4099,70.8788 68.6199,70.5155 68.7866,70.1755 C68.9532,69.8355 69.0999,69.4722 69.2266,69.0855 C69.3532,68.6988 69.4699,68.2688 69.5766,67.7955 C69.6832,67.3222 69.7966,66.7588 69.9166,66.1055 C69.9966,65.9988 70.1732,65.9088 70.4466,65.8355 C70.7199,65.7622 70.9699,65.7255 71.1966,65.7255 C71.3966,65.7255 71.5432,65.7588 71.6366,65.8255 C71.5699,66.5722 71.4466,67.2388 71.2666,67.8255 C71.0866,68.4122 70.8432,68.9822 70.5366,69.5355 C70.2299,70.0888 69.8499,70.6422 69.3966,71.1955 C68.9432,71.7488 68.4099,72.3521 67.7966,73.0055 C67.5432,73.2722 67.2666,73.5655 66.9666,73.8855 C66.6666,74.2055 66.3732,74.5022 66.0866,74.7755 C65.7999,75.0488 65.5332,75.2788 65.2866,75.4655 C65.0399,75.6522 64.8499,75.7455 64.7166,75.7455 C64.4099,75.7455 64.1566,75.6255 63.9566,75.3855 C63.7566,75.1455 63.6566,74.8388 63.6566,74.4655 C63.6566,74.0788 63.6732,73.7421 63.7066,73.4555 C63.7399,73.1688 63.7966,72.8655 63.8766,72.5455 C63.9566,72.2522 64.0199,72.0055 64.0666,71.8055 C64.1132,71.6055 64.1532,71.4322 64.1866,71.2855 C64.2199,71.1388 64.2432,71.0122 64.2566,70.9055 C64.2699,70.7988 64.2832,70.6922 64.2966,70.5855 C64.1899,70.6388 64.0499,70.7488 63.8766,70.9155 C63.7032,71.0822 63.5232,71.2755 63.3366,71.4955 C63.1499,71.7155 62.9632,71.9388 62.7766,72.1655 C62.5899,72.3922 62.4366,72.5855 62.3166,72.7455 C62.0632,73.0922 61.8432,73.3988 61.6566,73.6655 C61.4699,73.9322 61.2932,74.1855 61.1266,74.4255 C60.9599,74.6655 60.7966,74.9088 60.6366,75.1555 C60.4766,75.4022 60.2899,75.6655 60.0766,75.9455 C59.6499,75.8121 59.3466,75.6122 59.1666,75.3455 C58.9866,75.0788 58.8966,74.7522 58.8966,74.3655 " style="stroke:none;fill-rule:nonzero;fill:#40644f;fill-opacity:1;"/>
        </g>
    </g>
    <g id="Layer6" visibility="hidden">
        <g id="Shape7">
            <desc type="0" basicInfo-basicType="0" basicInfo-roundedRectRadius="12" basicInfo-polygonSides="6" basicInfo-starPoints="5" bounding="rect(-64.7692,-44.408,129.538,88.816)" text="" font-familyName="Kaushan Script" font-pixelSize="80" font-bold="0" font-underline="0" font-alignment="1" strokeStyle="0" markerStart="0" markerEnd="0" shadowEnabled="0" shadowOffsetX="0" shadowOffsetY="2" shadowBlur="4" shadowOpacity="160" blurEnabled="0" blurRadius="4" transform="matrix(2.26005,0,0,1,156.742,47.5164)" pers-center="0,0" pers-size="0,0" pers-start="0,0" pers-end="0,0" locked="0" mesh="" flag=""/>
            <path id="shapePath7" d="M210.357,5.8149 C232.708,1.04813 259.314,2.86636 276.689,9.00944 C295.216,15.5595 306.094,27.9937 302.41,38.3593 C297.28,52.7933 277.651,66.6856 252.774,76.2946 C228.765,85.5681 195.712,91.1922 163.879,91.868 C132.695,92.53 100.731,87.2852 74.0826,80.0881 C52.4002,74.2322 36.7118,64.2823 24.8975,54.3321 C14.3102,45.4153 8.47787,34.997 10.909,24.9822 C12.0723,20.1903 14.9702,5.99012 14.9702,10.8064 C14.9702,36.2358 31.3481,46.1577 70.9239,47.7433 C128.849,50.0641 158.383,16.8995 210.357,5.8149 Z" style="stroke:none;fill-rule:evenodd;fill:#c52124;fill-opacity:1;"/>
        </g>
    </g>
</svg>
