<?xml version="1.0"?>
<svg version="1.1" xmlns="http://www.w3.org/2000/svg" xmlns:xlink="http://www.w3.org/1999/xlink" width="100" height="100">
    <desc iVinci="yes" version="4.1" gridStep="20" showGrid="no" snapToGrid="no" codePlatform="0"/>
    <g id="Layer1" visibility="hidden">
        <g id="Shape1">
            <desc type="2" basicInfo-basicType="0" basicInfo-roundedRectRadius="12" basicInfo-polygonSides="6" basicInfo-starPoints="5" bounding="rect(-50,-48.2099,100,96.4197)" text="☯" font-familyName="Helvetica" font-pixelSize="120" font-bold="0" font-underline="0" font-alignment="1" strokeStyle="0" markerStart="0" markerEnd="0" shadowEnabled="0" shadowOffsetX="0" shadowOffsetY="2" shadowBlur="4" shadowOpacity="160" blurEnabled="0" blurRadius="4" transform="matrix(1,0,0,1,50.1106,57.4631)" pers-center="0,0" pers-size="0,0" pers-start="0,0" pers-end="0,0" locked="0" mesh="" flag=""/>
            <path id="shapePath1" d="M90.38,50.18 C90.38,53.54 90.14,56.42 89.18,59.78 C91.46,49.58 86.18,36.26 72.26,36.26 C62.54,36.26 55.58,43.7 49.94,49.7 C40.94,59.78 37.82,63.38 28.1,63.38 C14.3,63.38 8.18,50.18 10.94,39.86 C15.86,22.58 31.58,9.62 49.94,9.62 C72.02,9.62 90.38,27.86 90.38,50.18 M93.86,50.18 C93.86,25.82 74.3,6.02 49.94,6.02 C25.94,6.02 6.14,25.82 6.14,50.18 C6.14,74.18 25.94,93.98 49.94,93.98 C74.3,93.98 93.86,74.18 93.86,50.18 " style="stroke:none;fill-rule:nonzero;fill:#b19d7f;fill-opacity:1;"/>
        </g>
    </g>
    <g id="Layer2" visibility="hidden">
        <g id="Shape2">
            <desc type="2" basicInfo-basicType="0" basicInfo-roundedRectRadius="12" basicInfo-polygonSides="6" basicInfo-starPoints="5" bounding="rect(-39.9124,-11.9999,79.8249,23.9998)" text="Mind" font-familyName="Kaushan Script" font-pixelSize="22" font-bold="0" font-underline="0" font-alignment="1" strokeStyle="0" markerStart="0" markerEnd="0" shadowEnabled="0" shadowOffsetX="0" shadowOffsetY="2" shadowBlur="4" shadowOpacity="160" blurEnabled="0" blurRadius="4" transform="matrix(1,0,0,1,35.2845,32.5534)" pers-center="0,0" pers-size="0,0" pers-start="0,0" pers-end="0,0" locked="0" mesh="" flag=""/>
            <path id="shapePath2" d="M23.2018,42.0407 C23.1725,42.0554 23.1432,42.0627 23.1138,42.0627 C23.0845,42.0627 23.0258,42.0627 22.9378,42.0627 C22.7325,42.0627 22.4942,42.0297 22.2228,41.9637 C21.9515,41.8977 21.6875,41.8171 21.4308,41.7217 C21.1742,41.6264 20.9542,41.5201 20.7708,41.4027 C20.5875,41.2854 20.4738,41.1827 20.4298,41.0947 C20.4152,40.8894 20.4078,40.6767 20.4078,40.4567 C20.4078,40.2367 20.4078,40.0241 20.4078,39.8187 C20.4078,38.1761 20.5288,36.4601 20.7708,34.6707 C21.0128,32.8814 21.4125,30.9454 21.9698,28.8627 C22.0285,28.6574 22.0908,28.3971 22.1568,28.0817 C22.2228,27.7664 22.2925,27.4254 22.3658,27.0587 C22.0138,27.3374 21.5958,27.7811 21.1118,28.3897 C20.6278,28.9984 20.1182,29.7171 19.5828,30.5457 C19.0475,31.3744 18.5122,32.2837 17.9768,33.2737 C17.4415,34.2637 16.9538,35.2684 16.5138,36.2877 C16.0738,37.3071 15.6962,38.3154 15.3808,39.3127 C15.0655,40.3101 14.8712,41.2341 14.7978,42.0847 C14.0938,41.8794 13.6062,41.6741 13.3348,41.4687 C13.0635,41.2634 12.9278,41.0141 12.9278,40.7207 C12.9278,40.4567 13.0085,40.0827 13.1698,39.5987 C13.3312,39.1147 13.5585,38.5427 13.8518,37.8827 C14.1452,37.2227 14.5045,36.4857 14.9298,35.6717 C15.3552,34.8577 15.8245,33.9814 16.3378,33.0427 C16.9245,31.9721 17.5002,30.9674 18.0648,30.0287 C18.6295,29.0901 19.1832,28.2394 19.7258,27.4767 C20.2685,26.7141 20.8002,26.0541 21.3208,25.4967 C21.8415,24.9394 22.3585,24.5141 22.8718,24.2207 C23.0772,24.2207 23.3522,24.2721 23.6968,24.3747 C24.0415,24.4774 24.3788,24.6021 24.7088,24.7487 C25.0388,24.8954 25.3322,25.0457 25.5888,25.1997 C25.8455,25.3537 25.9885,25.4821 26.0178,25.5847 C25.8125,25.9954 25.5705,26.6114 25.2918,27.4327 C25.0132,28.2541 24.7308,29.1854 24.4448,30.2267 C24.1588,31.2681 23.8875,32.3717 23.6308,33.5377 C23.3742,34.7037 23.1725,35.8221 23.0258,36.8927 C23.3632,36.0861 23.7555,35.2464 24.2028,34.3737 C24.6502,33.5011 25.1232,32.6357 25.6218,31.7777 C26.1205,30.9197 26.6302,30.0874 27.1508,29.2807 C27.6715,28.4741 28.1812,27.7371 28.6798,27.0697 C29.1785,26.4024 29.6442,25.8194 30.0768,25.3207 C30.5095,24.8221 30.8945,24.4554 31.2318,24.2207 C31.4372,24.2207 31.7122,24.2721 32.0568,24.3747 C32.4015,24.4774 32.7388,24.6021 33.0688,24.7487 C33.3988,24.8954 33.6922,25.0457 33.9488,25.1997 C34.2055,25.3537 34.3485,25.4821 34.3778,25.5847 C33.9085,26.4207 33.4978,27.4401 33.1458,28.6427 C32.7938,29.8454 32.4968,31.1067 32.2548,32.4267 C32.0128,33.7467 31.8295,35.0557 31.7048,36.3537 C31.5802,37.6517 31.5178,38.8141 31.5178,39.8407 C31.5178,40.1781 31.5178,40.5301 31.5178,40.8967 C31.5178,41.2634 31.5325,41.6447 31.5618,42.0407 C31.3565,42.0407 31.1108,42.0151 30.8248,41.9637 C30.5388,41.9124 30.2602,41.8427 29.9888,41.7547 C29.7175,41.6667 29.4718,41.5677 29.2518,41.4577 C29.0318,41.3477 28.8778,41.2267 28.7898,41.0947 C28.7752,40.8894 28.7678,40.6767 28.7678,40.4567 C28.7678,40.2367 28.7678,40.0241 28.7678,39.8187 C28.7678,38.1761 28.8888,36.4601 29.1308,34.6707 C29.3728,32.8814 29.7725,30.9454 30.3298,28.8627 C30.3885,28.6574 30.4545,28.3787 30.5278,28.0267 C30.6012,27.6747 30.6745,27.3081 30.7478,26.9267 C30.3372,27.1321 29.8715,27.5244 29.3508,28.1037 C28.8302,28.6831 28.3022,29.3871 27.7668,30.2157 C27.2315,31.0444 26.7035,31.9647 26.1828,32.9767 C25.6622,33.9887 25.1928,35.0191 24.7748,36.0677 C24.3568,37.1164 24.0048,38.1577 23.7188,39.1917 C23.4328,40.2257 23.2605,41.1754 23.2018,42.0407 M34.2842,38.9387 C34.2842,38.8067 34.2952,38.6417 34.3172,38.4437 C34.3392,38.2457 34.3796,37.9817 34.4382,37.6517 C34.4969,37.3217 34.5739,36.9221 34.6692,36.4527 C34.7646,35.9834 34.8856,35.4187 35.0322,34.7587 C35.0616,34.6121 35.1276,34.3774 35.2302,34.0547 C35.3329,33.7321 35.4686,33.3911 35.6372,33.0317 C35.8059,32.6724 36.0112,32.3241 36.2532,31.9867 C36.4952,31.6494 36.7849,31.4001 37.1222,31.2387 C37.3716,31.2974 37.7016,31.4477 38.1122,31.6897 C38.5229,31.9317 38.8749,32.2654 39.1682,32.6907 C38.8309,33.0721 38.5486,33.4534 38.3212,33.8347 C38.0939,34.2161 37.8886,34.6121 37.7052,35.0227 C37.5219,35.4334 37.3532,35.8587 37.1992,36.2987 C37.0452,36.7387 36.8729,37.2007 36.6822,37.6847 C36.5209,38.0954 36.3742,38.5171 36.2422,38.9497 C36.1102,39.3824 36.0369,39.7601 36.0222,40.0827 C36.0222,40.3467 36.0186,40.5337 36.0112,40.6437 C36.0039,40.7537 35.9636,40.8087 35.8902,40.8087 C35.8316,40.8087 35.7142,40.7721 35.5382,40.6987 C35.3622,40.6254 35.1826,40.5117 34.9992,40.3577 C34.8159,40.2037 34.6509,40.0094 34.5042,39.7747 C34.3576,39.5401 34.2842,39.2614 34.2842,38.9387 M38.4862,29.3907 C38.4862,29.3027 38.5082,29.1707 38.5522,28.9947 C38.4789,28.9214 38.4166,28.8114 38.3652,28.6647 C38.3139,28.5181 38.2882,28.3861 38.2882,28.2687 C38.2882,28.1367 38.3066,27.9571 38.3432,27.7297 C38.3799,27.5024 38.4276,27.2567 38.4862,26.9927 C38.5449,26.7287 38.6182,26.4537 38.7062,26.1677 C38.7942,25.8817 38.8822,25.6214 38.9702,25.3867 C39.1462,25.3867 39.3626,25.4344 39.6192,25.5297 C39.8759,25.6251 40.1362,25.7497 40.4002,25.9037 C40.6642,26.0577 40.9062,26.2264 41.1262,26.4097 C41.3462,26.5931 41.5149,26.7654 41.6322,26.9267 C41.4709,27.0881 41.2582,27.3117 40.9942,27.5977 C40.7302,27.8837 40.4736,28.1844 40.2242,28.4997 C39.9749,28.8151 39.7476,29.1121 39.5422,29.3907 C39.3369,29.6694 39.2049,29.8674 39.1462,29.9847 C38.9702,29.9554 38.8162,29.8784 38.6842,29.7537 C38.5522,29.6291 38.4862,29.5081 38.4862,29.3907 M43.0137,29.7427 C43.3951,29.8601 43.7544,30.1204 44.0917,30.5237 C44.4291,30.9271 44.6784,31.3707 44.8397,31.8547 C44.6784,32.2507 44.4291,32.7274 44.0917,33.2847 C43.7544,33.8421 43.4171,34.4104 43.0797,34.9897 C42.7424,35.5691 42.4381,36.1191 42.1667,36.6397 C41.8954,37.1604 41.7377,37.5894 41.6937,37.9267 C41.9284,37.6774 42.1887,37.3877 42.4747,37.0577 C42.7607,36.7277 43.0394,36.3977 43.3107,36.0677 C43.5821,35.7377 43.8351,35.4371 44.0697,35.1657 C44.3044,34.8944 44.4877,34.6927 44.6197,34.5607 C44.8984,34.2674 45.2284,33.9264 45.6097,33.5377 C45.9911,33.1491 46.3907,32.7824 46.8087,32.4377 C47.2267,32.0931 47.6484,31.7997 48.0737,31.5577 C48.4991,31.3157 48.8877,31.1947 49.2397,31.1947 C49.6211,31.1947 49.9401,31.3231 50.1967,31.5797 C50.4534,31.8364 50.6551,32.1041 50.8017,32.3827 C50.8017,32.4121 50.7467,32.4524 50.6367,32.5037 C50.5267,32.5551 50.3691,32.6981 50.1637,32.9327 C49.9584,33.1967 49.7274,33.5597 49.4707,34.0217 C49.2141,34.4837 48.9647,34.9824 48.7227,35.5177 C48.4807,36.0531 48.2791,36.5994 48.1177,37.1567 C47.9564,37.7141 47.8757,38.2201 47.8757,38.6747 C47.8757,39.0414 47.9234,39.2761 48.0187,39.3787 C48.1141,39.4814 48.2497,39.5327 48.4257,39.5327 C48.5871,39.5327 48.7557,39.4961 48.9317,39.4227 C49.1077,39.3494 49.2471,39.3127 49.3497,39.3127 C49.4084,39.3421 49.4561,39.4044 49.4927,39.4997 C49.5294,39.5951 49.5477,39.6794 49.5477,39.7527 C49.4304,39.8554 49.2911,39.9581 49.1297,40.0607 C48.9684,40.1634 48.7997,40.2587 48.6237,40.3467 C48.4477,40.4347 48.2754,40.5081 48.1067,40.5667 C47.9381,40.6254 47.7877,40.6547 47.6557,40.6547 C47.2304,40.6547 46.8821,40.5924 46.6107,40.4677 C46.3394,40.3431 46.1267,40.1781 45.9727,39.9727 C45.8187,39.7674 45.7124,39.5217 45.6537,39.2357 C45.5951,38.9497 45.5657,38.6454 45.5657,38.3227 C45.5657,38.1467 45.5804,37.9487 45.6097,37.7287 C45.6391,37.5087 45.6977,37.2484 45.7857,36.9477 C45.8737,36.6471 45.9984,36.2877 46.1597,35.8697 C46.3211,35.4517 46.5264,34.9494 46.7757,34.3627 C46.7464,34.3627 46.5484,34.4654 46.1817,34.6707 C45.8151,34.8761 45.4191,35.1914 44.9937,35.6167 C44.3044,36.2767 43.6847,36.9294 43.1347,37.5747 C42.5847,38.2201 42.0237,38.9387 41.4517,39.7307 C41.1291,40.1854 40.8467,40.5704 40.6047,40.8857 C40.3627,41.2011 40.1537,41.4101 39.9777,41.5127 C39.6697,41.3367 39.4424,41.0911 39.2957,40.7757 C39.1491,40.4604 39.0391,40.1341 38.9657,39.7967 C38.9657,39.5181 39.0061,39.1661 39.0867,38.7407 C39.1674,38.3154 39.2774,37.8424 39.4167,37.3217 C39.5561,36.8011 39.7284,36.2547 39.9337,35.6827 C40.1391,35.1107 40.3664,34.5387 40.6157,33.9667 C41.1731,32.6761 41.6827,31.6641 42.1447,30.9307 C42.6067,30.1974 42.8964,29.8014 43.0137,29.7427 M56.1207,30.1387 C56.4141,30.1387 56.7514,30.2267 57.1327,30.4027 C57.5141,30.5787 57.8514,30.8061 58.1447,31.0847 C58.0714,30.4981 57.9797,29.9444 57.8697,29.4237 C57.7597,28.9031 57.5984,28.3641 57.3857,27.8067 C57.1731,27.2494 56.8907,26.6407 56.5387,25.9807 C56.1867,25.3207 55.7467,24.5654 55.2187,23.7147 C55.2627,23.5827 55.3617,23.4287 55.5157,23.2527 C55.6697,23.0767 55.8457,22.9117 56.0437,22.7577 C56.2417,22.6037 56.4471,22.4681 56.6597,22.3507 C56.8724,22.2334 57.0741,22.1601 57.2647,22.1307 C57.6754,22.5854 58.0641,23.1537 58.4307,23.8357 C58.7974,24.5177 59.1201,25.2511 59.3987,26.0357 C59.6774,26.8204 59.8937,27.6307 60.0477,28.4667 C60.2017,29.3027 60.2787,30.1021 60.2787,30.8647 C60.2787,31.6274 60.1944,32.4121 60.0257,33.2187 C59.8571,34.0254 59.6224,34.8137 59.3217,35.5837 C59.0211,36.3537 58.6727,37.0834 58.2767,37.7727 C57.8807,38.4621 57.4517,39.0781 56.9897,39.6207 C56.5277,40.1634 56.0474,40.6071 55.5487,40.9517 C55.0501,41.2964 54.5514,41.5127 54.0527,41.6007 C53.0407,41.4834 52.2671,41.1571 51.7317,40.6217 C51.1964,40.0864 50.9287,39.3494 50.9287,38.4107 C50.9287,37.9121 51.0057,37.3694 51.1597,36.7827 C51.3137,36.1961 51.5191,35.6131 51.7757,35.0337 C52.0324,34.4544 52.3331,33.8897 52.6777,33.3397 C53.0224,32.7897 53.3891,32.2947 53.7777,31.8547 C54.1664,31.4147 54.5587,31.0407 54.9547,30.7327 C55.3507,30.4247 55.7394,30.2267 56.1207,30.1387 M53.8767,40.7207 C54.3901,40.5447 54.9034,40.1561 55.4167,39.5547 C55.9301,38.9534 56.3921,38.2457 56.8027,37.4317 C57.2134,36.6177 57.5471,35.7451 57.8037,34.8137 C58.0604,33.8824 58.1887,32.9841 58.1887,32.1187 C58.1887,31.8694 58.1887,31.7154 58.1887,31.6567 C58.1887,31.5981 58.1814,31.5394 58.1667,31.4807 C57.8147,31.6274 57.4407,31.8767 57.0447,32.2287 C56.6487,32.5807 56.2527,32.9877 55.8567,33.4497 C55.4607,33.9117 55.0867,34.4141 54.7347,34.9567 C54.3827,35.4994 54.0674,36.0421 53.7887,36.5847 C53.5101,37.1274 53.2901,37.6481 53.1287,38.1467 C52.9674,38.6454 52.8867,39.0854 52.8867,39.4667 C52.8867,40.2001 53.2167,40.6181 53.8767,40.7207 " style="stroke:none;fill-rule:nonzero;fill:#7d583f;fill-opacity:1;"/>
        </g>
        <g id="Shape3">
            <desc type="2" basicInfo-basicType="0" basicInfo-roundedRectRadius="12" basicInfo-polygonSides="6" basicInfo-starPoints="5" bounding="rect(-25,-19.2603,50,38.5207)" text="Flow&#10;&#10;" font-familyName="Kaushan Script" font-pixelSize="22" font-bold="0" font-underline="0" font-alignment="1" strokeStyle="0" markerStart="0" markerEnd="0" shadowEnabled="0" shadowOffsetX="0" shadowOffsetY="2" shadowBlur="4" shadowOpacity="160" blurEnabled="0" blurRadius="4" transform="matrix(1,0,0,1,63.252,80.1591)" pers-center="0,0" pers-size="0,0" pers-start="0,0" pers-end="0,0" locked="0" mesh="" flag=""/>
            <path id="shapePath3" d="M54.317,62.5788 C54.7863,62.5788 55.1567,62.7108 55.428,62.9748 C55.6993,63.2388 55.835,63.6055 55.835,64.0748 C55.835,64.1922 55.8277,64.3132 55.813,64.4378 C55.7983,64.5625 55.769,64.6688 55.725,64.7568 C55.5343,64.7275 55.3217,64.7018 55.087,64.6798 C54.8523,64.6578 54.5737,64.6468 54.251,64.6468 C53.591,64.6468 52.931,64.7055 52.271,64.8228 C51.611,64.9402 50.9803,65.0355 50.379,65.1088 C49.719,66.6635 49.1763,68.1228 48.751,69.4868 C48.3257,70.8508 47.9957,72.2002 47.761,73.5348 C47.2623,73.4175 46.8223,73.2048 46.441,72.8968 C46.0597,72.5888 45.7003,72.1562 45.363,71.5988 C45.4657,71.3642 45.5903,71.0818 45.737,70.7518 C45.8837,70.4218 46.0597,70.0038 46.265,69.4978 C46.4703,68.9918 46.716,68.3758 47.002,67.6498 C47.288,66.9238 47.629,66.0548 48.025,65.0428 C47.409,64.8375 47.0057,64.4782 46.815,63.9648 C46.8883,63.8915 47.0937,63.8072 47.431,63.7118 C47.7683,63.6165 48.179,63.5102 48.663,63.3928 C48.883,62.8208 49.0737,62.3112 49.235,61.8638 C49.3963,61.4165 49.543,60.9912 49.675,60.5878 C49.807,60.1845 49.928,59.7885 50.038,59.3998 C50.148,59.0112 50.247,58.5968 50.335,58.1568 L50.225,58.1568 C49.6677,58.1568 49.2167,58.0248 48.872,57.7608 C48.5273,57.4968 48.355,57.1522 48.355,56.7268 C48.355,56.6095 48.3733,56.4702 48.41,56.3088 C48.4467,56.1475 48.4943,56.0082 48.553,55.8908 C48.8317,55.9348 49.1067,55.9642 49.378,55.9788 C49.6493,55.9935 50.005,56.0008 50.445,56.0008 C51.369,56.0008 52.2343,55.9752 53.041,55.9238 C53.8477,55.8725 54.5773,55.8175 55.23,55.7588 C55.8827,55.7002 56.4437,55.6452 56.913,55.5938 C57.3823,55.5425 57.7417,55.5168 57.991,55.5168 C58.3283,55.5168 58.629,55.6928 58.893,56.0448 C59.157,56.3968 59.3623,56.8955 59.509,57.5408 C59.0397,57.4968 58.662,57.4675 58.376,57.4528 C58.09,57.4382 57.837,57.4308 57.617,57.4308 C56.869,57.4308 56.1833,57.4638 55.56,57.5298 C54.9367,57.5958 54.3463,57.6728 53.789,57.7608 C53.701,57.8928 53.602,58.0615 53.492,58.2668 C53.382,58.4722 53.239,58.7618 53.063,59.1358 C52.887,59.5098 52.6633,59.9975 52.392,60.5988 C52.1207,61.2002 51.7797,61.9628 51.369,62.8868 C51.941,62.7988 52.4873,62.7255 53.008,62.6668 C53.5287,62.6082 53.965,62.5788 54.317,62.5788 M56.989,70.3448 C56.989,69.6995 57.143,68.7938 57.451,67.6278 C57.759,66.4618 58.1917,65.1015 58.749,63.5468 C59.6583,61.0682 60.5127,59.0038 61.312,57.3538 C62.1113,55.7038 62.8923,54.4168 63.655,53.4928 C63.831,53.5222 64.0473,53.5955 64.304,53.7128 C64.5607,53.8302 64.8137,53.9585 65.063,54.0978 C65.3123,54.2372 65.536,54.3802 65.734,54.5268 C65.932,54.6735 66.0603,54.7908 66.119,54.8788 C64.975,56.2282 63.9703,57.6802 63.105,59.2348 C62.2397,60.7895 61.4477,62.5715 60.729,64.5808 C60.113,66.3115 59.6437,67.8698 59.321,69.2558 C58.9983,70.6418 58.837,71.7968 58.837,72.7208 C58.837,72.9702 58.837,73.1242 58.837,73.1828 C58.837,73.2415 58.8443,73.3002 58.859,73.3588 C58.6537,73.3295 58.4777,73.2782 58.331,73.2048 C58.1843,73.1315 58.089,73.0435 58.045,72.9408 C58.0157,72.8675 57.935,72.7612 57.803,72.6218 C57.671,72.4825 57.5537,72.3762 57.451,72.3028 C57.319,72.2148 57.209,71.9838 57.121,71.6098 C57.033,71.2358 56.989,70.8142 56.989,70.3448 M64.7008,72.5228 C63.8647,72.4348 63.1974,72.0682 62.6987,71.4228 C62.2001,70.7775 61.9507,69.9562 61.9507,68.9588 C61.9507,68.3722 62.0387,67.7635 62.2147,67.1328 C62.3907,66.5022 62.6401,65.8898 62.9627,65.2958 C63.2854,64.7018 63.6667,64.1408 64.1068,63.6128 C64.5467,63.0848 65.0234,62.6302 65.5368,62.2488 C66.3434,61.6475 67.0987,61.3468 67.8027,61.3468 C68.2721,61.5962 68.7341,62.1168 69.1888,62.9088 C69.2621,62.9088 69.3281,62.9052 69.3867,62.8978 C69.4454,62.8905 69.5114,62.8868 69.5847,62.8868 C70.3621,62.8868 70.7507,63.5762 70.7507,64.9548 C70.7507,65.8788 70.6004,66.7552 70.2998,67.5838 C69.9991,68.4125 69.5811,69.1642 69.0457,69.8388 C68.5104,70.5135 67.8724,71.0818 67.1318,71.5438 C66.3911,72.0058 65.5807,72.3322 64.7008,72.5228 M65.8227,65.5928 C65.5734,65.9302 65.3387,66.2968 65.1188,66.6928 C64.8988,67.0888 64.7081,67.4885 64.5467,67.8918 C64.3854,68.2952 64.2607,68.6838 64.1728,69.0578 C64.0847,69.4318 64.0407,69.7655 64.0407,70.0588 C64.0407,70.4108 64.0994,70.7482 64.2168,71.0708 C64.3341,71.3935 64.4661,71.5768 64.6127,71.6208 C65.2728,71.4742 65.8777,71.1992 66.4277,70.7958 C66.9778,70.3925 67.4544,69.8902 67.8577,69.2888 C68.2611,68.6875 68.5764,68.0055 68.8037,67.2428 C69.0311,66.4802 69.1447,65.6662 69.1447,64.8008 C69.1447,64.4195 69.1227,64.1188 69.0788,63.8988 C69.0348,63.6788 68.9614,63.4882 68.8587,63.3268 C68.2134,63.5175 67.6377,63.8255 67.1318,64.2508 C66.6257,64.6762 66.1894,65.1235 65.8227,65.5928 M71.9902,70.8508 C71.9902,70.5575 72.0232,70.1468 72.0892,69.6188 C72.1553,69.0908 72.2432,68.5188 72.3532,67.9028 C72.4632,67.2868 72.5879,66.6562 72.7272,66.0108 C72.8666,65.3655 73.0096,64.7862 73.1562,64.2728 C73.3469,63.5835 73.6439,63.0518 74.0472,62.6778 C74.4506,62.3038 74.9529,62.1168 75.5542,62.1168 C75.8769,62.1168 76.1959,62.1682 76.5112,62.2708 C76.8266,62.3735 77.0136,62.5055 77.0723,62.6668 C76.6469,63.0188 76.3059,63.4552 76.0492,63.9758 C75.7926,64.4965 75.5872,65.0538 75.4333,65.6478 C75.2793,66.2418 75.1619,66.8505 75.0813,67.4738 C75.0006,68.0972 74.9163,68.6802 74.8282,69.2228 C75.3122,68.5775 75.7706,67.9945 76.2032,67.4738 C76.6359,66.9532 77.0209,66.5388 77.3582,66.2308 C77.8129,65.8055 78.1209,65.4498 78.2822,65.1638 C78.4436,64.8778 78.5829,64.5662 78.7002,64.2288 C78.7882,63.9648 78.8946,63.6568 79.0192,63.3048 C79.1439,62.9528 79.3529,62.6302 79.6462,62.3368 C79.7049,62.3222 79.8296,62.3148 80.0202,62.3148 C80.1669,62.3148 80.3246,62.3222 80.4932,62.3368 C80.6619,62.3515 80.8196,62.3808 80.9662,62.4248 C81.1129,62.4688 81.2376,62.5202 81.3402,62.5788 C81.4429,62.6375 81.5016,62.7108 81.5163,62.7988 C81.2816,63.1068 81.0616,63.5872 80.8562,64.2398 C80.6509,64.8925 80.4676,65.6075 80.3063,66.3848 C80.1449,67.1622 79.9982,67.9358 79.8662,68.7058 C79.7343,69.4758 79.6169,70.1248 79.5143,70.6528 C79.5729,70.6235 79.7049,70.5062 79.9102,70.3008 C80.1156,70.0955 80.3466,69.8388 80.6032,69.5308 C80.8599,69.2228 81.1312,68.8855 81.4173,68.5188 C81.7032,68.1522 81.9563,67.7928 82.1762,67.4408 C82.4549,67.0155 82.6859,66.6158 82.8692,66.2418 C83.0526,65.8678 83.2139,65.4682 83.3532,65.0428 C83.4926,64.6175 83.6209,64.1445 83.7383,63.6238 C83.8556,63.1032 83.9802,62.4835 84.1123,61.7648 C84.2002,61.6475 84.3946,61.5485 84.6953,61.4678 C84.9959,61.3872 85.2709,61.3468 85.5202,61.3468 C85.7402,61.3468 85.9016,61.3835 86.0042,61.4568 C85.9309,62.2782 85.7952,63.0115 85.5972,63.6568 C85.3992,64.3022 85.1316,64.9292 84.7943,65.5378 C84.4569,66.1465 84.0389,66.7552 83.5403,67.3638 C83.0416,67.9725 82.4549,68.6362 81.7803,69.3548 C81.5016,69.6482 81.1973,69.9708 80.8672,70.3228 C80.5372,70.6748 80.2146,71.0012 79.8992,71.3018 C79.5839,71.6025 79.2906,71.8555 79.0192,72.0608 C78.7479,72.2662 78.5389,72.3688 78.3923,72.3688 C78.0549,72.3688 77.7762,72.2368 77.5563,71.9728 C77.3363,71.7088 77.2262,71.3715 77.2262,70.9608 C77.2262,70.5355 77.2446,70.1652 77.2812,69.8498 C77.3179,69.5345 77.3802,69.2008 77.4682,68.8488 C77.5563,68.5262 77.6259,68.2548 77.6772,68.0348 C77.7286,67.8148 77.7726,67.6242 77.8092,67.4628 C77.8459,67.3015 77.8716,67.1622 77.8862,67.0448 C77.9009,66.9275 77.9156,66.8102 77.9303,66.6928 C77.8129,66.7515 77.6589,66.8725 77.4682,67.0558 C77.2776,67.2392 77.0796,67.4518 76.8743,67.6938 C76.6689,67.9358 76.4636,68.1815 76.2582,68.4308 C76.0529,68.6802 75.8842,68.8928 75.7523,69.0688 C75.4736,69.4502 75.2316,69.7875 75.0262,70.0808 C74.8209,70.3742 74.6266,70.6528 74.4433,70.9168 C74.2599,71.1808 74.0802,71.4485 73.9043,71.7198 C73.7282,71.9912 73.5229,72.2808 73.2882,72.5888 C72.8189,72.4422 72.4852,72.2222 72.2872,71.9288 C72.0892,71.6355 71.9902,71.2762 71.9902,70.8508 " style="stroke:none;fill-rule:nonzero;fill:#ffffff;fill-opacity:1;"/>
        </g>
    </g>
    <g id="Layer3">
        <g id="Shape4">
            <desc type="2" basicInfo-basicType="0" basicInfo-roundedRectRadius="12" basicInfo-polygonSides="6" basicInfo-starPoints="5" bounding="rect(-50,-48.2099,100,96.4197)" text="☯" font-familyName="Helvetica" font-pixelSize="120" font-bold="0" font-underline="0" font-alignment="1" strokeStyle="0" markerStart="0" markerEnd="0" shadowEnabled="0" shadowOffsetX="0" shadowOffsetY="2" shadowBlur="4" shadowOpacity="160" blurEnabled="0" blurRadius="4" transform="matrix(-1,0,0,-1,50.5571,42.5369)" pers-center="0,0" pers-size="0,0" pers-start="0,0" pers-end="0,0" locked="0" mesh="" flag=""/>
            <path id="shapePath4" d="M10.2878,49.82 C10.2878,46.46 10.5278,43.58 11.4878,40.22 C9.20775,50.42 14.4878,63.74 28.4078,63.74 C38.1278,63.74 45.0878,56.3 50.7278,50.3 C59.7278,40.22 62.8478,36.62 72.5678,36.62 C86.3678,36.62 92.4878,49.82 89.7278,60.14 C84.8078,77.42 69.0878,90.38 50.7278,90.38 C28.6478,90.38 10.2878,72.14 10.2878,49.82 M6.80775,49.82 C6.80775,74.18 26.3678,93.98 50.7278,93.98 C74.7278,93.98 94.5278,74.18 94.5278,49.82 C94.5278,25.82 74.7278,6.02 50.7278,6.02 C26.3678,6.02 6.80775,25.82 6.80775,49.82 " style="stroke:none;fill-rule:nonzero;fill:#a0c4a6;fill-opacity:1;"/>
        </g>
    </g>
    <g id="Layer4">
        <g id="Shape5">
            <desc type="2" basicInfo-basicType="0" basicInfo-roundedRectRadius="12" basicInfo-polygonSides="6" basicInfo-starPoints="5" bounding="rect(-39.9124,-11.9999,79.8249,23.9998)" text="Mind" font-familyName="Kaushan Script" font-pixelSize="22" font-bold="0" font-underline="0" font-alignment="1" strokeStyle="0" markerStart="0" markerEnd="0" shadowEnabled="0" shadowOffsetX="0" shadowOffsetY="2" shadowBlur="4" shadowOpacity="160" blurEnabled="0" blurRadius="4" transform="matrix(1,0,0,1,38.1346,28.7453)" pers-center="0,0" pers-size="0,0" pers-start="0,0" pers-end="0,0" locked="0" mesh="" flag=""/>
            <path id="shapePath5" d="M26.0519,38.2327 C26.0226,38.2474 25.9933,38.2547 25.9639,38.2547 C25.9346,38.2547 25.8759,38.2547 25.7879,38.2547 C25.5826,38.2547 25.3443,38.2217 25.0729,38.1557 C24.8016,38.0897 24.5376,38.0091 24.2809,37.9137 C24.0243,37.8184 23.8043,37.7121 23.6209,37.5947 C23.4376,37.4774 23.3239,37.3747 23.2799,37.2867 C23.2653,37.0814 23.2579,36.8687 23.2579,36.6487 C23.2579,36.4287 23.2579,36.2161 23.2579,36.0107 C23.2579,34.3681 23.3789,32.6521 23.6209,30.8627 C23.8629,29.0734 24.2626,27.1374 24.8199,25.0547 C24.8786,24.8494 24.9409,24.5891 25.0069,24.2737 C25.0729,23.9584 25.1426,23.6174 25.2159,23.2507 C24.8639,23.5294 24.4459,23.9731 23.9619,24.5817 C23.4779,25.1904 22.9683,25.9091 22.4329,26.7377 C21.8976,27.5664 21.3623,28.4757 20.8269,29.4657 C20.2916,30.4557 19.8039,31.4604 19.3639,32.4797 C18.9239,33.4991 18.5463,34.5074 18.2309,35.5047 C17.9156,36.5021 17.7213,37.4261 17.6479,38.2767 C16.9439,38.0714 16.4563,37.8661 16.1849,37.6607 C15.9136,37.4554 15.7779,37.2061 15.7779,36.9127 C15.7779,36.6487 15.8586,36.2747 16.0199,35.7907 C16.1813,35.3067 16.4086,34.7347 16.7019,34.0747 C16.9953,33.4147 17.3546,32.6777 17.7799,31.8637 C18.2053,31.0497 18.6746,30.1734 19.1879,29.2347 C19.7746,28.1641 20.3503,27.1594 20.9149,26.2207 C21.4796,25.2821 22.0333,24.4314 22.5759,23.6687 C23.1186,22.9061 23.6503,22.2461 24.1709,21.6887 C24.6916,21.1314 25.2086,20.7061 25.7219,20.4127 C25.9273,20.4127 26.2023,20.4641 26.5469,20.5667 C26.8916,20.6694 27.2289,20.7941 27.5589,20.9407 C27.8889,21.0874 28.1823,21.2377 28.4389,21.3917 C28.6956,21.5457 28.8386,21.6741 28.8679,21.7767 C28.6626,22.1874 28.4206,22.8034 28.1419,23.6247 C27.8633,24.4461 27.5809,25.3774 27.2949,26.4187 C27.0089,27.4601 26.7376,28.5637 26.4809,29.7297 C26.2243,30.8957 26.0226,32.0141 25.8759,33.0847 C26.2133,32.2781 26.6056,31.4384 27.0529,30.5657 C27.5003,29.6931 27.9733,28.8277 28.4719,27.9697 C28.9706,27.1117 29.4803,26.2794 30.0009,25.4727 C30.5216,24.6661 31.0313,23.9291 31.5299,23.2617 C32.0286,22.5944 32.4943,22.0114 32.9269,21.5127 C33.3596,21.0141 33.7446,20.6474 34.0819,20.4127 C34.2873,20.4127 34.5623,20.4641 34.9069,20.5667 C35.2516,20.6694 35.5889,20.7941 35.9189,20.9407 C36.2489,21.0874 36.5423,21.2377 36.7989,21.3917 C37.0556,21.5457 37.1986,21.6741 37.2279,21.7767 C36.7586,22.6127 36.3479,23.6321 35.9959,24.8347 C35.6439,26.0374 35.3469,27.2987 35.1049,28.6187 C34.8629,29.9387 34.6796,31.2477 34.5549,32.5457 C34.4303,33.8437 34.3679,35.0061 34.3679,36.0327 C34.3679,36.3701 34.3679,36.7221 34.3679,37.0887 C34.3679,37.4554 34.3826,37.8367 34.4119,38.2327 C34.2066,38.2327 33.9609,38.2071 33.6749,38.1557 C33.3889,38.1044 33.1103,38.0347 32.8389,37.9467 C32.5676,37.8587 32.3219,37.7597 32.1019,37.6497 C31.8819,37.5397 31.7279,37.4187 31.6399,37.2867 C31.6253,37.0814 31.6179,36.8687 31.6179,36.6487 C31.6179,36.4287 31.6179,36.2161 31.6179,36.0107 C31.6179,34.3681 31.7389,32.6521 31.9809,30.8627 C32.2229,29.0734 32.6226,27.1374 33.1799,25.0547 C33.2386,24.8494 33.3046,24.5707 33.3779,24.2187 C33.4513,23.8667 33.5246,23.5001 33.5979,23.1187 C33.1873,23.3241 32.7216,23.7164 32.2009,24.2957 C31.6803,24.8751 31.1523,25.5791 30.6169,26.4077 C30.0816,27.2364 29.5536,28.1567 29.0329,29.1687 C28.5123,30.1807 28.0429,31.2111 27.6249,32.2597 C27.2069,33.3084 26.8549,34.3497 26.5689,35.3837 C26.2829,36.4177 26.1106,37.3674 26.0519,38.2327 M37.1343,35.1307 C37.1343,34.9987 37.1453,34.8337 37.1673,34.6357 C37.1893,34.4377 37.2297,34.1737 37.2883,33.8437 C37.347,33.5137 37.424,33.1141 37.5193,32.6447 C37.6147,32.1754 37.7356,31.6107 37.8823,30.9507 C37.9117,30.8041 37.9776,30.5694 38.0803,30.2467 C38.183,29.9241 38.3186,29.5831 38.4873,29.2237 C38.656,28.8644 38.8613,28.5161 39.1033,28.1787 C39.3453,27.8414 39.635,27.5921 39.9723,27.4307 C40.2216,27.4894 40.5517,27.6397 40.9623,27.8817 C41.373,28.1237 41.725,28.4574 42.0183,28.8827 C41.681,29.2641 41.3987,29.6454 41.1713,30.0267 C40.944,30.4081 40.7387,30.8041 40.5553,31.2147 C40.372,31.6254 40.2033,32.0507 40.0493,32.4907 C39.8953,32.9307 39.723,33.3927 39.5323,33.8767 C39.371,34.2874 39.2243,34.7091 39.0923,35.1417 C38.9603,35.5744 38.887,35.9521 38.8723,36.2747 C38.8723,36.5387 38.8687,36.7257 38.8613,36.8357 C38.854,36.9457 38.8137,37.0007 38.7403,37.0007 C38.6817,37.0007 38.5643,36.9641 38.3883,36.8907 C38.2123,36.8174 38.0326,36.7037 37.8493,36.5497 C37.666,36.3957 37.501,36.2014 37.3543,35.9667 C37.2076,35.7321 37.1343,35.4534 37.1343,35.1307 M41.3363,25.5827 C41.3363,25.4947 41.3583,25.3627 41.4023,25.1867 C41.329,25.1134 41.2667,25.0034 41.2153,24.8567 C41.164,24.7101 41.1383,24.5781 41.1383,24.4607 C41.1383,24.3287 41.1567,24.1491 41.1933,23.9217 C41.23,23.6944 41.2776,23.4487 41.3363,23.1847 C41.395,22.9207 41.4683,22.6457 41.5563,22.3597 C41.6443,22.0737 41.7323,21.8134 41.8203,21.5787 C41.9963,21.5787 42.2127,21.6264 42.4693,21.7217 C42.726,21.8171 42.9863,21.9417 43.2503,22.0957 C43.5143,22.2497 43.7563,22.4184 43.9763,22.6017 C44.1963,22.7851 44.365,22.9574 44.4823,23.1187 C44.321,23.2801 44.1083,23.5037 43.8443,23.7897 C43.5803,24.0757 43.3237,24.3764 43.0743,24.6917 C42.825,25.0071 42.5976,25.3041 42.3923,25.5827 C42.187,25.8614 42.055,26.0594 41.9963,26.1767 C41.8203,26.1474 41.6663,26.0704 41.5343,25.9457 C41.4023,25.8211 41.3363,25.7001 41.3363,25.5827 M45.8638,25.9347 C46.2452,26.0521 46.6045,26.3124 46.9418,26.7157 C47.2792,27.1191 47.5285,27.5627 47.6898,28.0467 C47.5285,28.4427 47.2792,28.9194 46.9418,29.4767 C46.6045,30.0341 46.2672,30.6024 45.9298,31.1817 C45.5925,31.7611 45.2882,32.3111 45.0168,32.8317 C44.7455,33.3524 44.5878,33.7814 44.5438,34.1187 C44.7785,33.8694 45.0388,33.5797 45.3248,33.2497 C45.6108,32.9197 45.8895,32.5897 46.1608,32.2597 C46.4322,31.9297 46.6852,31.6291 46.9198,31.3577 C47.1545,31.0864 47.3378,30.8847 47.4698,30.7527 C47.7485,30.4594 48.0785,30.1184 48.4598,29.7297 C48.8411,29.3411 49.2408,28.9744 49.6588,28.6297 C50.0768,28.2851 50.4985,27.9917 50.9238,27.7497 C51.3492,27.5077 51.7378,27.3867 52.0898,27.3867 C52.4711,27.3867 52.7901,27.5151 53.0468,27.7717 C53.3035,28.0284 53.5051,28.2961 53.6518,28.5747 C53.6518,28.6041 53.5968,28.6444 53.4868,28.6957 C53.3768,28.7471 53.2192,28.8901 53.0138,29.1247 C52.8085,29.3887 52.5775,29.7517 52.3208,30.2137 C52.0642,30.6757 51.8148,31.1744 51.5728,31.7097 C51.3308,32.2451 51.1292,32.7914 50.9678,33.3487 C50.8065,33.9061 50.7258,34.4121 50.7258,34.8667 C50.7258,35.2334 50.7735,35.4681 50.8688,35.5707 C50.9641,35.6734 51.0998,35.7247 51.2758,35.7247 C51.4371,35.7247 51.6058,35.6881 51.7818,35.6147 C51.9578,35.5414 52.0972,35.5047 52.1998,35.5047 C52.2585,35.5341 52.3062,35.5964 52.3428,35.6917 C52.3795,35.7871 52.3978,35.8714 52.3978,35.9447 C52.2805,36.0474 52.1412,36.1501 51.9798,36.2527 C51.8185,36.3554 51.6498,36.4507 51.4738,36.5387 C51.2978,36.6267 51.1255,36.7001 50.9568,36.7587 C50.7882,36.8174 50.6378,36.8467 50.5058,36.8467 C50.0805,36.8467 49.7322,36.7844 49.4608,36.6597 C49.1895,36.5351 48.9768,36.3701 48.8228,36.1647 C48.6688,35.9594 48.5625,35.7137 48.5038,35.4277 C48.4452,35.1417 48.4158,34.8374 48.4158,34.5147 C48.4158,34.3387 48.4305,34.1407 48.4598,33.9207 C48.4892,33.7007 48.5478,33.4404 48.6358,33.1397 C48.7238,32.8391 48.8485,32.4797 49.0098,32.0617 C49.1712,31.6437 49.3765,31.1414 49.6258,30.5547 C49.5965,30.5547 49.3985,30.6574 49.0318,30.8627 C48.6651,31.0681 48.2691,31.3834 47.8438,31.8087 C47.1545,32.4687 46.5348,33.1214 45.9848,33.7667 C45.4348,34.4121 44.8738,35.1307 44.3018,35.9227 C43.9791,36.3774 43.6968,36.7624 43.4548,37.0777 C43.2128,37.3931 43.0038,37.6021 42.8278,37.7047 C42.5198,37.5287 42.2925,37.2831 42.1458,36.9677 C41.9991,36.6524 41.8892,36.3261 41.8158,35.9887 C41.8158,35.7101 41.8562,35.3581 41.9368,34.9327 C42.0175,34.5074 42.1275,34.0344 42.2668,33.5137 C42.4062,32.9931 42.5785,32.4467 42.7838,31.8747 C42.9892,31.3027 43.2165,30.7307 43.4658,30.1587 C44.0232,28.8681 44.5328,27.8561 44.9948,27.1227 C45.4568,26.3894 45.7465,25.9934 45.8638,25.9347 M58.9708,26.3307 C59.2642,26.3307 59.6015,26.4187 59.9828,26.5947 C60.3642,26.7707 60.7015,26.9981 60.9948,27.2767 C60.9215,26.6901 60.8298,26.1364 60.7198,25.6157 C60.6098,25.0951 60.4485,24.5561 60.2358,23.9987 C60.0232,23.4414 59.7408,22.8327 59.3888,22.1727 C59.0368,21.5127 58.5968,20.7574 58.0688,19.9067 C58.1128,19.7747 58.2118,19.6207 58.3658,19.4447 C58.5198,19.2687 58.6958,19.1037 58.8938,18.9497 C59.0918,18.7957 59.2971,18.6601 59.5098,18.5427 C59.7225,18.4254 59.9241,18.3521 60.1148,18.3227 C60.5255,18.7774 60.9142,19.3457 61.2808,20.0277 C61.6475,20.7097 61.9701,21.4431 62.2488,22.2277 C62.5275,23.0124 62.7438,23.8227 62.8978,24.6587 C63.0518,25.4947 63.1288,26.2941 63.1288,27.0567 C63.1288,27.8194 63.0445,28.6041 62.8758,29.4107 C62.7072,30.2174 62.4725,31.0057 62.1718,31.7757 C61.8712,32.5457 61.5228,33.2754 61.1268,33.9647 C60.7308,34.6541 60.3018,35.2701 59.8398,35.8127 C59.3778,36.3554 58.8975,36.7991 58.3988,37.1437 C57.9002,37.4884 57.4015,37.7047 56.9028,37.7927 C55.8908,37.6754 55.1171,37.3491 54.5818,36.8137 C54.0465,36.2784 53.7788,35.5414 53.7788,34.6027 C53.7788,34.1041 53.8558,33.5614 54.0098,32.9747 C54.1638,32.3881 54.3691,31.8051 54.6258,31.2257 C54.8825,30.6464 55.1832,30.0817 55.5278,29.5317 C55.8725,28.9817 56.2392,28.4867 56.6278,28.0467 C57.0165,27.6067 57.4088,27.2327 57.8048,26.9247 C58.2008,26.6167 58.5895,26.4187 58.9708,26.3307 M56.7268,36.9127 C57.2402,36.7367 57.7535,36.3481 58.2668,35.7467 C58.7802,35.1454 59.2421,34.4377 59.6528,33.6237 C60.0635,32.8097 60.3971,31.9371 60.6538,31.0057 C60.9105,30.0744 61.0388,29.1761 61.0388,28.3107 C61.0388,28.0614 61.0388,27.9074 61.0388,27.8487 C61.0388,27.7901 61.0315,27.7314 61.0168,27.6727 C60.6648,27.8194 60.2908,28.0687 59.8948,28.4207 C59.4988,28.7727 59.1028,29.1797 58.7068,29.6417 C58.3108,30.1037 57.9368,30.6061 57.5848,31.1487 C57.2328,31.6914 56.9175,32.2341 56.6388,32.7767 C56.3602,33.3194 56.1402,33.8401 55.9788,34.3387 C55.8175,34.8374 55.7368,35.2774 55.7368,35.6587 C55.7368,36.3921 56.0668,36.8101 56.7268,36.9127 " style="stroke:none;fill-rule:nonzero;fill:#ffffff;fill-opacity:1;"/>
        </g>
        <g id="Shape6">
            <desc type="2" basicInfo-basicType="0" basicInfo-roundedRectRadius="12" basicInfo-polygonSides="6" basicInfo-starPoints="5" bounding="rect(-25,-19.2603,50,38.5207)" text="Flow&#10;&#10;" font-familyName="Kaushan Script" font-pixelSize="22" font-bold="0" font-underline="0" font-alignment="1" strokeStyle="0" markerStart="0" markerEnd="0" shadowEnabled="0" shadowOffsetX="0" shadowOffsetY="2" shadowBlur="4" shadowOpacity="160" blurEnabled="0" blurRadius="4" transform="matrix(1,0,0,1,64.5132,78.0844)" pers-center="0,0" pers-size="0,0" pers-start="0,0" pers-end="0,0" locked="0" mesh="" flag=""/>
            <path id="shapePath6" d="M55.5782,60.5041 C56.0475,60.5041 56.4178,60.6361 56.6892,60.9001 C56.9605,61.1641 57.0962,61.5308 57.0962,62.0001 C57.0962,62.1175 57.0888,62.2385 57.0742,62.3631 C57.0595,62.4878 57.0302,62.5941 56.9862,62.6821 C56.7955,62.6528 56.5828,62.6271 56.3482,62.6051 C56.1135,62.5831 55.8348,62.5721 55.5122,62.5721 C54.8522,62.5721 54.1922,62.6308 53.5322,62.7481 C52.8722,62.8655 52.2415,62.9608 51.6402,63.0341 C50.9802,64.5888 50.4375,66.0481 50.0122,67.4121 C49.5868,68.7761 49.2568,70.1255 49.0222,71.4601 C48.5235,71.3428 48.0835,71.1301 47.7022,70.8221 C47.3208,70.5141 46.9615,70.0815 46.6242,69.5241 C46.7268,69.2895 46.8515,69.0071 46.9982,68.6771 C47.1448,68.3471 47.3208,67.9291 47.5262,67.4231 C47.7315,66.9171 47.9772,66.3011 48.2632,65.5751 C48.5492,64.8491 48.8902,63.9801 49.2862,62.9681 C48.6702,62.7628 48.2668,62.4035 48.0762,61.8901 C48.1495,61.8168 48.3548,61.7325 48.6922,61.6371 C49.0295,61.5418 49.4402,61.4355 49.9242,61.3181 C50.1442,60.7461 50.3348,60.2365 50.4962,59.7891 C50.6575,59.3418 50.8042,58.9165 50.9362,58.5131 C51.0682,58.1098 51.1892,57.7138 51.2992,57.3251 C51.4092,56.9365 51.5082,56.5221 51.5962,56.0821 L51.4862,56.0821 C50.9288,56.0821 50.4778,55.9501 50.1332,55.6861 C49.7885,55.4221 49.6162,55.0775 49.6162,54.6521 C49.6162,54.5348 49.6345,54.3955 49.6712,54.2341 C49.7078,54.0728 49.7555,53.9335 49.8142,53.8161 C50.0928,53.8601 50.3678,53.8895 50.6392,53.9041 C50.9105,53.9188 51.2662,53.9261 51.7062,53.9261 C52.6302,53.9261 53.4955,53.9005 54.3022,53.8491 C55.1088,53.7978 55.8385,53.7428 56.4912,53.6841 C57.1438,53.6255 57.7048,53.5705 58.1742,53.5191 C58.6435,53.4678 59.0028,53.4421 59.2522,53.4421 C59.5895,53.4421 59.8902,53.6181 60.1542,53.9701 C60.4182,54.3221 60.6235,54.8208 60.7702,55.4661 C60.3008,55.4221 59.9232,55.3928 59.6372,55.3781 C59.3512,55.3635 59.0982,55.3561 58.8782,55.3561 C58.1302,55.3561 57.4445,55.3891 56.8212,55.4551 C56.1978,55.5211 55.6075,55.5981 55.0502,55.6861 C54.9622,55.8181 54.8632,55.9868 54.7532,56.1921 C54.6432,56.3975 54.5002,56.6871 54.3242,57.0611 C54.1482,57.4351 53.9245,57.9228 53.6532,58.5241 C53.3818,59.1255 53.0408,59.8881 52.6302,60.8121 C53.2022,60.7241 53.7485,60.6508 54.2692,60.5921 C54.7898,60.5335 55.2262,60.5041 55.5782,60.5041 M58.2502,68.2701 C58.2502,67.6248 58.4042,66.7191 58.7122,65.5531 C59.0202,64.3871 59.4528,63.0268 60.0102,61.4721 C60.9195,58.9935 61.7738,56.9291 62.5732,55.2791 C63.3725,53.6291 64.1535,52.3421 64.9162,51.4181 C65.0922,51.4475 65.3085,51.5208 65.5652,51.6381 C65.8218,51.7555 66.0748,51.8838 66.3242,52.0231 C66.5735,52.1625 66.7972,52.3055 66.9952,52.4521 C67.1932,52.5988 67.3215,52.7161 67.3802,52.8041 C66.2362,54.1535 65.2315,55.6055 64.3662,57.1601 C63.5008,58.7148 62.7088,60.4968 61.9902,62.5061 C61.3742,64.2368 60.9048,65.7951 60.5822,67.1811 C60.2595,68.5671 60.0982,69.7221 60.0982,70.6461 C60.0982,70.8955 60.0982,71.0495 60.0982,71.1081 C60.0982,71.1668 60.1055,71.2255 60.1202,71.2841 C59.9148,71.2548 59.7388,71.2035 59.5922,71.1301 C59.4455,71.0568 59.3502,70.9688 59.3062,70.8661 C59.2768,70.7928 59.1962,70.6865 59.0642,70.5471 C58.9322,70.4078 58.8148,70.3015 58.7122,70.2281 C58.5802,70.1401 58.4702,69.9091 58.3822,69.5351 C58.2942,69.1611 58.2502,68.7395 58.2502,68.2701 M65.9619,70.4481 C65.1259,70.3601 64.4586,69.9935 63.9599,69.3481 C63.4613,68.7028 63.2119,67.8815 63.2119,66.8841 C63.2119,66.2975 63.2999,65.6888 63.4759,65.0581 C63.6519,64.4275 63.9013,63.8151 64.2239,63.2211 C64.5466,62.6271 64.9279,62.0661 65.3679,61.5381 C65.8079,61.0101 66.2846,60.5555 66.7979,60.1741 C67.6046,59.5728 68.3599,59.2721 69.0639,59.2721 C69.5333,59.5215 69.9953,60.0421 70.4499,60.8341 C70.5233,60.8341 70.5893,60.8305 70.6479,60.8231 C70.7066,60.8158 70.7726,60.8121 70.8459,60.8121 C71.6233,60.8121 72.0119,61.5015 72.0119,62.8801 C72.0119,63.8041 71.8616,64.6805 71.5609,65.5091 C71.2603,66.3378 70.8423,67.0895 70.3069,67.7641 C69.7716,68.4388 69.1336,69.0071 68.3929,69.4691 C67.6523,69.9311 66.8419,70.2575 65.9619,70.4481 M67.0839,63.5181 C66.8346,63.8555 66.5999,64.2221 66.3799,64.6181 C66.1599,65.0141 65.9693,65.4138 65.8079,65.8171 C65.6466,66.2205 65.5219,66.6091 65.4339,66.9831 C65.3459,67.3571 65.3019,67.6908 65.3019,67.9841 C65.3019,68.3361 65.3606,68.6735 65.4779,68.9961 C65.5953,69.3188 65.7273,69.5021 65.8739,69.5461 C66.5339,69.3995 67.1389,69.1245 67.6889,68.7211 C68.2389,68.3178 68.7156,67.8155 69.1189,67.2141 C69.5223,66.6128 69.8376,65.9308 70.0649,65.1681 C70.2923,64.4055 70.4059,63.5915 70.4059,62.7261 C70.4059,62.3448 70.3839,62.0441 70.3399,61.8241 C70.2959,61.6041 70.2226,61.4135 70.1199,61.2521 C69.4746,61.4428 68.8989,61.7508 68.3929,62.1761 C67.8869,62.6015 67.4506,63.0488 67.0839,63.5181 M73.2514,68.7761 C73.2514,68.4828 73.2844,68.0721 73.3504,67.5441 C73.4164,67.0161 73.5044,66.4441 73.6144,65.8281 C73.7244,65.2121 73.8491,64.5815 73.9884,63.9361 C74.1278,63.2908 74.2708,62.7115 74.4174,62.1981 C74.6081,61.5088 74.9051,60.9771 75.3084,60.6031 C75.7118,60.2291 76.2141,60.0421 76.8154,60.0421 C77.1381,60.0421 77.4571,60.0935 77.7724,60.1961 C78.0878,60.2988 78.2748,60.4308 78.3334,60.5921 C77.9081,60.9441 77.5671,61.3805 77.3104,61.9011 C77.0538,62.4218 76.8484,62.9791 76.6944,63.5731 C76.5404,64.1671 76.4231,64.7758 76.3424,65.3991 C76.2618,66.0225 76.1774,66.6055 76.0894,67.1481 C76.5734,66.5028 77.0318,65.9198 77.4644,65.3991 C77.8971,64.8785 78.2821,64.4641 78.6194,64.1561 C79.0741,63.7308 79.3821,63.3751 79.5434,63.0891 C79.7048,62.8031 79.8441,62.4915 79.9614,62.1541 C80.0494,61.8901 80.1558,61.5821 80.2804,61.2301 C80.4051,60.8781 80.6141,60.5555 80.9074,60.2621 C80.9661,60.2475 81.0908,60.2401 81.2814,60.2401 C81.4281,60.2401 81.5858,60.2475 81.7544,60.2621 C81.9231,60.2768 82.0808,60.3061 82.2274,60.3501 C82.3741,60.3941 82.4988,60.4455 82.6014,60.5041 C82.7041,60.5628 82.7628,60.6361 82.7774,60.7241 C82.5428,61.0321 82.3228,61.5125 82.1174,62.1651 C81.9121,62.8178 81.7288,63.5328 81.5674,64.3101 C81.4061,65.0875 81.2594,65.8611 81.1274,66.6311 C80.9954,67.4011 80.8781,68.0501 80.7754,68.5781 C80.8341,68.5488 80.9661,68.4315 81.1714,68.2261 C81.3768,68.0208 81.6078,67.7641 81.8644,67.4561 C82.1211,67.1481 82.3924,66.8108 82.6784,66.4441 C82.9644,66.0775 83.2174,65.7181 83.4374,65.3661 C83.7161,64.9408 83.9471,64.5411 84.1304,64.1671 C84.3138,63.7931 84.4751,63.3935 84.6144,62.9681 C84.7538,62.5428 84.8821,62.0698 84.9994,61.5491 C85.1168,61.0285 85.2414,60.4088 85.3734,59.6901 C85.4614,59.5728 85.6558,59.4738 85.9564,59.3931 C86.2571,59.3125 86.5321,59.2721 86.7814,59.2721 C87.0014,59.2721 87.1628,59.3088 87.2654,59.3821 C87.1921,60.2035 87.0564,60.9368 86.8584,61.5821 C86.6604,62.2275 86.3928,62.8545 86.0554,63.4631 C85.7181,64.0718 85.3001,64.6805 84.8014,65.2891 C84.3028,65.8978 83.7161,66.5615 83.0414,67.2801 C82.7628,67.5735 82.4584,67.8961 82.1284,68.2481 C81.7984,68.6001 81.4758,68.9265 81.1604,69.2271 C80.8451,69.5278 80.5518,69.7808 80.2804,69.9861 C80.0091,70.1915 79.8001,70.2941 79.6534,70.2941 C79.3161,70.2941 79.0374,70.1621 78.8174,69.8981 C78.5974,69.6341 78.4874,69.2968 78.4874,68.8861 C78.4874,68.4608 78.5058,68.0905 78.5424,67.7751 C78.5791,67.4598 78.6414,67.1261 78.7294,66.7741 C78.8174,66.4515 78.8871,66.1801 78.9384,65.9601 C78.9898,65.7401 79.0338,65.5495 79.0704,65.3881 C79.1071,65.2268 79.1328,65.0875 79.1474,64.9701 C79.1621,64.8528 79.1768,64.7355 79.1914,64.6181 C79.0741,64.6768 78.9201,64.7978 78.7294,64.9811 C78.5388,65.1645 78.3408,65.3771 78.1354,65.6191 C77.9301,65.8611 77.7248,66.1068 77.5194,66.3561 C77.3141,66.6055 77.1454,66.8181 77.0134,66.9941 C76.7348,67.3755 76.4928,67.7128 76.2874,68.0061 C76.0821,68.2995 75.8878,68.5781 75.7044,68.8421 C75.5211,69.1061 75.3414,69.3738 75.1654,69.6451 C74.9894,69.9165 74.7841,70.2061 74.5494,70.5141 C74.0801,70.3675 73.7464,70.1475 73.5484,69.8541 C73.3504,69.5608 73.2514,69.2015 73.2514,68.7761 " style="stroke:none;fill-rule:nonzero;fill:#5e8c71;fill-opacity:1;"/>
        </g>
    </g>
</svg>
